<svg width="79" height="37" viewBox="0 0 79 37" fill="none" xmlns="http://www.w3.org/2000/svg">
<g clip-path="url(#clip0_57_393)">
<path d="M0.543993 5.88557C0.543993 1.97562 4.55594 0.00364281 8.12589 0.00364281C9.45188 -0.0303567 10.7779 0.173641 12.0358 0.615635C12.0698 1.43162 12.2058 2.72361 12.2058 3.2336C12.2058 3.6076 11.9678 3.6756 11.7638 3.6756C11.4579 3.6756 11.3899 3.4036 11.3219 3.1316C11.0499 1.77162 8.83989 1.32963 7.6839 1.32963C5.64393 1.32963 3.43396 2.45161 3.43396 4.72958C3.43396 9.76152 13.8378 7.38155 13.8378 15.0994C13.8378 16.1534 12.9198 21.4914 5.77992 21.4914C4.01195 21.4914 2.24397 21.1854 0.543993 20.5734C0.237997 18.7374 0 17.9214 0 17.5474C0 17.3434 0 17.0034 0.475994 17.0034C0.849989 17.0034 0.917988 17.3094 1.01999 17.6494C1.63198 19.4174 4.35194 20.1654 5.94992 20.1654C8.39789 20.1654 10.9139 18.8734 10.9139 16.1534C10.9479 10.7135 0.543993 13.1615 0.543993 5.88557Z" fill="#C6D9FF" fill-opacity="0.5"/>
<path d="M17.9532 13.1901C17.6132 14.0741 17.0692 15.5021 17.0692 15.9781C17.0692 16.2841 17.2392 16.3181 17.5112 16.3181H18.4292V16.8281H15.1992V16.3181H15.7092C15.9132 16.3521 16.0832 16.2161 16.1172 16.0461C16.7972 14.3121 18.4292 10.5381 20.0612 6.73018C20.4692 6.62819 20.9111 6.52619 21.3191 6.49219C21.4211 6.49219 21.4891 6.59419 21.4891 6.69619C21.4891 6.90018 21.1831 6.93418 21.1831 7.24018C21.1831 7.78417 22.9511 12.4421 23.8351 14.8561C24.3111 16.1481 24.4471 16.3521 24.9911 16.3521H25.3651V16.8621H21.3531V16.3181H22.0671C22.3731 16.3181 22.4071 16.2501 22.3051 15.9441L21.3531 13.1901H17.9532ZM19.7892 8.80416C19.2112 10.0621 18.7012 11.3201 18.2252 12.5781H21.0811L19.7892 8.80416Z" fill="#C6D9FF" fill-opacity="0.5"/>
<path d="M26.4873 16.8686V16.3246H27.2013C27.4053 16.3246 27.4393 16.2226 27.4393 16.0866V9.45665C27.4393 7.34868 27.3373 7.31468 26.8273 7.31468H26.1133V6.80469H30.7712C33.0152 6.80469 34.1032 8.23267 34.1032 9.52465C34.1032 10.9186 33.1512 11.7686 31.8252 11.9726C33.2532 14.1486 33.7972 14.9986 34.4432 15.7466C34.8852 16.1886 34.9872 16.3246 35.5992 16.3246V16.8346H33.7972C33.5252 16.8686 33.2532 16.8346 33.0152 16.6986C32.5392 16.3246 31.3832 14.4546 30.2612 12.2446H29.2752V14.1486C29.2752 16.2566 29.3772 16.2906 29.8872 16.2906H30.6012V16.8006L26.4873 16.8686ZM29.2752 11.7346H29.8532C31.1112 11.7346 32.2672 11.1906 32.2672 9.76265C32.3352 8.53867 31.4172 7.48468 30.1932 7.41668H29.4792C29.3092 7.41668 29.2752 7.45068 29.2752 7.62068V11.7346Z" fill="#C6D9FF" fill-opacity="0.5"/>
<path d="M39.0665 13.1901C38.7265 14.0741 38.1825 15.5021 38.1825 15.9781C38.1825 16.2841 38.3525 16.3181 38.6245 16.3181H39.5425V16.8281H36.3125V16.3181H36.8225C37.0265 16.3521 37.1965 16.2161 37.2305 16.0461C37.9105 14.3121 39.5425 10.5381 41.1744 6.73018C41.5824 6.62819 42.0244 6.52619 42.4324 6.49219C42.5344 6.49219 42.6024 6.59419 42.6024 6.69619C42.6024 6.90018 42.2964 6.93418 42.2964 7.24018C42.2964 7.78417 44.0644 12.4421 44.9484 14.8561C45.4244 16.1481 45.5604 16.3521 46.1044 16.3521H46.4784V16.8621H42.5004V16.3181H43.2144C43.5204 16.3181 43.5544 16.2501 43.4524 15.9441L42.5004 13.1901H39.0665ZM40.8684 8.80416C40.2904 10.0621 39.7805 11.3201 39.3045 12.5781H42.1604L40.8684 8.80416Z" fill="#C6D9FF" fill-opacity="0.5"/>
<path d="M55.3886 8.46416C55.2526 8.46416 55.2186 8.39616 55.1506 8.05617C55.0486 7.58017 53.8927 7.10418 52.9067 7.10418C50.2547 7.10418 48.6567 9.24615 48.6567 11.8641C48.6567 14.2101 50.0507 16.4541 52.5667 16.4541C53.4507 16.4541 55.3546 15.9781 55.5246 14.8901C55.5586 14.7541 55.5586 14.6181 55.7626 14.6181C55.8646 14.6181 55.9666 14.6861 55.9666 14.7881C55.9666 14.9241 55.9326 15.2641 55.8306 16.3181C54.6406 16.8621 53.3827 17.1341 52.0907 17.1341C48.9287 17.1341 46.7188 15.5021 46.7188 12.2041C46.7188 8.70216 49.7107 6.49219 53.0087 6.49219C53.9267 6.52619 54.8446 6.69618 55.6946 7.03618C55.6266 8.46416 55.5926 8.46416 55.3886 8.46416Z" fill="#C6D9FF" fill-opacity="0.5"/>
<path d="M57.5966 16.3246H58.3106C58.5146 16.3246 58.5486 16.2226 58.5486 16.0866V9.45665C58.5486 7.34868 58.4466 7.31468 57.9366 7.31468H57.2227V6.80469H64.9746C64.8046 8.30067 64.7706 8.43667 64.6346 8.43667C64.4306 8.43667 64.3966 8.30067 64.3966 8.09667C64.3966 7.82467 63.5466 7.45068 61.7446 7.45068H60.5886C60.4186 7.45068 60.3846 7.48468 60.3846 7.65468V11.1226H61.8466C63.5126 11.1226 63.5806 10.9186 63.5806 10.4766V9.86465H64.0566V12.6526H63.5806V12.0746C63.5806 11.8026 63.5126 11.6326 61.8466 11.6326H60.3846V12.7886C60.3846 16.1546 60.4526 16.2226 60.9966 16.2226H61.5406C62.3906 16.2226 64.5666 16.2226 65.0426 15.3386C65.1106 15.2366 65.1446 15.1346 65.2806 15.1346C65.3826 15.1346 65.4506 15.2026 65.4506 15.3046C65.4506 15.3046 65.4506 15.3046 65.4506 15.3386C65.3486 15.8486 65.2126 16.3586 65.0426 16.8346H57.5966V16.3246Z" fill="#C6D9FF" fill-opacity="0.5"/>
<path d="M75.4111 13.9786V10.6126C75.4451 9.69465 75.4111 8.77666 75.3091 7.82467C75.2411 7.34868 75.1051 7.31468 74.6971 7.31468H74.0511V6.80469H77.0091V7.31468H76.5671C76.1591 7.31468 76.0911 7.31468 76.0911 7.51868V16.8346C76.0911 16.9366 76.0571 17.0386 75.9211 17.0386C75.7851 17.0386 75.6831 16.9026 75.4451 16.6306L68.4412 8.67466V13.0606C68.4072 13.9786 68.4412 14.8966 68.5432 15.8486C68.6112 16.3246 68.7472 16.3586 69.1552 16.3586H69.8011V16.8686H66.8432V16.3246H67.2852C67.6932 16.3246 67.7612 16.3246 67.7612 16.1206V8.91266C67.7612 8.02867 67.4212 7.31468 66.8092 7.31468H66.3672V6.80469H69.1212L75.4111 13.9786Z" fill="#C6D9FF" fill-opacity="0.5"/>
<path d="M16.6586 20.2007C16.6246 20.2007 16.6246 20.1667 16.5906 20.0647C16.5566 19.9287 16.2166 19.7927 15.9106 19.7927C15.0946 19.7927 14.5846 20.4727 14.5846 21.2547C14.5846 21.9687 14.9926 22.6826 15.7746 22.6826C16.0466 22.6826 16.6246 22.5466 16.6926 22.2067C16.6926 22.1727 16.6926 22.1047 16.7606 22.1047C16.7946 22.1047 16.8286 22.1047 16.8286 22.1387C16.8286 22.1727 16.8286 22.2747 16.7946 22.6146C16.4206 22.7846 16.0466 22.8526 15.6386 22.8526C14.6526 22.8526 13.9727 22.3427 13.9727 21.3227C13.9727 20.2347 14.8906 19.5547 15.9106 19.5547C16.1826 19.5547 16.4886 19.6227 16.7266 19.7247C16.7266 20.2007 16.7266 20.2007 16.6586 20.2007Z" fill="#C6D9FF" fill-opacity="0.5"/>
<path d="M20.0961 21.6599C19.9601 21.9319 19.8921 22.2379 19.8241 22.5099C19.8241 22.6119 19.8921 22.6119 19.9601 22.6119H20.2321V22.7819H19.2461V22.6119H19.3821C19.4501 22.6119 19.4841 22.5779 19.5181 22.5099C19.7221 21.9659 20.2321 20.8099 20.7421 19.6539C20.8781 19.6199 21.0141 19.5859 21.1161 19.5859C21.1501 19.5859 21.1501 19.6199 21.1501 19.6539C21.1501 19.7219 21.0481 19.7219 21.0481 19.8239C21.0481 19.9939 21.5921 21.4219 21.8641 22.1699C22.0001 22.5779 22.0341 22.6459 22.2041 22.6459H22.3061V22.7819H21.0821V22.6119H21.2861C21.3881 22.6119 21.3881 22.5779 21.3541 22.5099L21.0481 21.6599H20.0961ZM20.6401 20.2999C20.4701 20.6739 20.3001 21.0819 20.1641 21.4559H21.0481L20.6401 20.2999Z" fill="#C6D9FF" fill-opacity="0.5"/>
<path d="M24.7528 20.509C24.7528 19.897 25.3647 19.625 25.9087 19.625C26.1127 19.625 26.3167 19.659 26.5207 19.727C26.5207 19.863 26.5547 20.033 26.5547 20.135C26.5547 20.203 26.5207 20.203 26.4867 20.203C26.4527 20.203 26.4187 20.169 26.4187 20.135C26.3847 19.931 26.0447 19.863 25.8747 19.863C25.5687 19.829 25.2627 20.067 25.2287 20.373C25.2287 21.155 26.8267 20.781 26.8267 21.971C26.8267 22.141 26.6907 22.957 25.6027 22.957C25.3307 22.957 25.0587 22.923 24.7868 22.821C24.7528 22.549 24.7188 22.413 24.7188 22.379C24.7188 22.345 24.7188 22.311 24.7868 22.311C24.8547 22.311 24.8547 22.345 24.8547 22.413C24.9567 22.685 25.3647 22.787 25.6027 22.787C25.9767 22.787 26.3507 22.583 26.3507 22.175C26.3507 21.223 24.7528 21.597 24.7528 20.509Z" fill="#C6D9FF" fill-opacity="0.5"/>
<path d="M30.0915 21.9682C30.0915 22.6142 30.1255 22.6482 30.2615 22.6482H30.4655V22.7842H29.2075V22.6142H29.4115C29.4795 22.6142 29.4795 22.5802 29.4795 22.5462V20.5062C29.4795 19.8602 29.4455 19.8262 29.3095 19.8262H29.1055V19.6562H30.3635V19.8262H30.1595C30.0915 19.8262 30.0915 19.8602 30.0915 19.8942V21.9682Z" fill="#C6D9FF" fill-opacity="0.5"/>
<path d="M35.5652 21.9V20.8801C35.5652 20.6081 35.5652 20.3021 35.5312 20.0301C35.4972 19.8941 35.4632 19.8601 35.3272 19.8601H35.1232V19.6901H36.0412V19.8601H35.9052C35.7692 19.8601 35.7692 19.8601 35.7692 19.9281V22.784C35.7692 22.818 35.7692 22.852 35.7352 22.852C35.7012 22.852 35.6672 22.818 35.5992 22.716L33.4232 20.2681V21.628C33.4232 21.9 33.4232 22.206 33.4572 22.478C33.4912 22.614 33.5252 22.648 33.6612 22.648H33.8652V22.784H32.9472V22.614H33.0832C33.2192 22.614 33.2192 22.614 33.2192 22.546V20.3361C33.2192 20.0641 33.1172 19.8261 32.9132 19.8261H32.7772V19.6561H33.6272L35.5652 21.9Z" fill="#C6D9FF" fill-opacity="0.5"/>
<path d="M38.3879 21.3173C38.3539 20.3993 39.0339 19.6513 39.9519 19.5833C39.9859 19.5833 40.0199 19.5833 40.0879 19.5833C40.9039 19.5153 41.6179 20.1273 41.6519 20.9433C41.6519 21.0113 41.6519 21.0793 41.6519 21.1473C41.6859 22.0653 41.0059 22.8132 40.0879 22.8812C40.0539 22.8812 40.0199 22.8812 39.9519 22.8812C39.1359 22.9492 38.4219 22.3373 38.3879 21.5213C38.3879 21.4533 38.3879 21.3853 38.3879 21.3173ZM41.0739 21.4193C41.0739 20.1613 40.3599 19.7533 39.9179 19.7533C39.7819 19.7533 38.9659 19.7873 38.9659 21.0453C38.9659 22.3033 39.6799 22.7112 40.1219 22.7112C40.2579 22.7112 41.0739 22.6772 41.0739 21.4193Z" fill="#C6D9FF" fill-opacity="0.5"/>
<path d="M47.1918 22.7842V22.6142H47.3958C47.4638 22.6142 47.4638 22.5802 47.4638 22.5462V20.5062C47.4638 19.8602 47.4298 19.8262 47.2938 19.8262H47.0898V19.6562H48.5178C49.1978 19.6562 49.5378 20.0982 49.5378 20.5062C49.5378 20.9142 49.2318 21.2202 48.8238 21.2542C49.0618 21.6622 49.3338 22.0362 49.6398 22.4102C49.7758 22.5462 49.8098 22.5802 49.9798 22.5802V22.7842H49.4358C49.3678 22.7842 49.2658 22.7842 49.1978 22.7502C48.8578 22.3422 48.5858 21.8662 48.3478 21.3902H48.0418V21.9682C48.0418 22.6142 48.0758 22.6482 48.2118 22.6482H48.4158V22.7842H47.1918ZM48.0758 21.2202H48.2458C48.6538 21.2202 48.9938 21.0502 48.9938 20.6082C49.0278 20.2342 48.7218 19.9282 48.3478 19.8942H48.1438C48.1098 19.8942 48.0758 19.8942 48.0758 19.9622V21.2202Z" fill="#C6D9FF" fill-opacity="0.5"/>
<path d="M52.3598 22.6142H52.5638C52.6318 22.6142 52.6318 22.5802 52.6318 22.5462V20.5062C52.6318 19.8602 52.5978 19.8262 52.4618 19.8262H52.2578V19.6562H54.6378C54.5698 20.1322 54.5698 20.1662 54.5358 20.1662C54.4678 20.1662 54.4678 20.1322 54.4678 20.0642C54.4678 19.9962 54.1958 19.8602 53.6518 19.8602H53.3118C53.2778 19.8602 53.2438 19.8602 53.2438 19.9282V20.9822H53.6858C54.1958 20.9822 54.2298 20.9142 54.2298 20.7782V20.6082H54.3658V21.4582H54.2298V21.2882C54.2298 21.2202 54.1958 21.1522 53.6858 21.1522H53.2438V21.4922C53.2438 22.5462 53.2778 22.5462 53.4138 22.5462H53.5838C53.8558 22.5462 54.5018 22.5462 54.6718 22.2742C54.7058 22.2402 54.7058 22.2062 54.7398 22.2062C54.7738 22.2062 54.8078 22.2402 54.8078 22.2742C54.7738 22.4442 54.7398 22.5802 54.6718 22.7502H52.3598V22.6142Z" fill="#C6D9FF" fill-opacity="0.5"/>
<path d="M57.2567 20.509C57.2567 19.897 57.8686 19.625 58.4126 19.625C58.6166 19.625 58.8206 19.659 59.0246 19.727C59.0246 19.863 59.0586 20.033 59.0586 20.135C59.0586 20.203 59.0246 20.203 58.9906 20.203C58.9566 20.203 58.9226 20.169 58.9226 20.135C58.8886 19.931 58.5486 19.863 58.3786 19.863C58.0726 19.863 57.7326 20.033 57.7326 20.373C57.7326 21.155 59.3306 20.781 59.3306 21.971C59.3306 22.141 59.1946 22.957 58.1066 22.957C57.8346 22.957 57.5627 22.923 57.2907 22.821C57.2567 22.549 57.2227 22.413 57.2227 22.379C57.2227 22.345 57.2227 22.311 57.2907 22.311C57.3587 22.311 57.3587 22.345 57.3587 22.413C57.4607 22.685 57.8686 22.787 58.1066 22.787C58.4806 22.787 58.8546 22.583 58.8546 22.175C58.8206 21.223 57.2567 21.597 57.2567 20.509Z" fill="#C6D9FF" fill-opacity="0.5"/>
<path d="M61.7083 21.3173C61.6743 20.3993 62.3542 19.6513 63.2722 19.5833C63.3062 19.5833 63.3402 19.5833 63.4082 19.5833C64.2242 19.5153 64.9382 20.1273 64.9722 20.9433C64.9722 21.0113 64.9722 21.0793 64.9722 21.1473C65.0062 22.0653 64.3262 22.8132 63.4082 22.8812C63.3742 22.8812 63.3402 22.8812 63.2722 22.8812C62.4562 22.9492 61.7423 22.3373 61.7083 21.5213C61.7083 21.4533 61.7083 21.3853 61.7083 21.3173ZM64.3942 21.4193C64.3942 20.1613 63.6802 19.7533 63.2382 19.7533C63.1022 19.7533 62.2862 19.7873 62.2862 21.0453C62.2862 22.3033 63.0002 22.7112 63.4422 22.7112C63.5782 22.7112 64.3942 22.6772 64.3942 21.4193Z" fill="#C6D9FF" fill-opacity="0.5"/>
<path d="M67.3206 22.784V22.614H67.5246C67.5926 22.614 67.5926 22.58 67.5926 22.546V20.5061C67.5926 19.8601 67.5586 19.8261 67.4226 19.8261H67.2186V19.6561H68.6466C69.3266 19.6561 69.6666 20.0981 69.6666 20.5061C69.6666 20.9141 69.3606 21.22 68.9526 21.254C69.1906 21.662 69.4626 22.036 69.7686 22.41C69.9046 22.546 69.9386 22.58 70.1086 22.58V22.784H69.5646C69.4966 22.784 69.3946 22.784 69.3266 22.75C68.9866 22.342 68.7146 21.866 68.4766 21.39H68.1706V21.968C68.1706 22.614 68.2046 22.648 68.3406 22.648H68.5446V22.784H67.3206ZM68.1706 21.22H68.3406C68.7486 21.22 69.0886 21.05 69.0886 20.6081C69.1226 20.2341 68.8166 19.8941 68.4426 19.8941H68.2386C68.2046 19.8941 68.1706 19.8941 68.1706 19.9621V21.22Z" fill="#C6D9FF" fill-opacity="0.5"/>
<path d="M74.326 22.7815H72.796V22.6115H73.17C73.238 22.6115 73.238 22.5775 73.238 22.5435V19.8575H73.136C72.898 19.8575 72.388 19.8575 72.252 20.0955C72.218 20.1635 72.218 20.1975 72.15 20.1975C72.116 20.1975 72.082 20.1635 72.082 20.1635C72.082 20.1295 72.116 20.0615 72.218 19.6875H74.734C74.836 20.0615 74.87 20.1295 74.87 20.1635C74.87 20.1975 74.836 20.2315 74.802 20.2315C74.768 20.2315 74.734 20.1975 74.7 20.1295C74.564 19.8915 74.054 19.8915 73.816 19.8915H73.714V21.9655C73.714 22.6115 73.748 22.6455 73.884 22.6455H74.224L74.326 22.7815Z" fill="#C6D9FF" fill-opacity="0.5"/>
<path d="M76.1259 31.5239C65.008 38.8678 52.4962 36.9298 43.2483 34.1419C27.1665 28.4299 18.5986 25.166 10.7447 26.084C5.9168 26.662 1.02087 32.5439 9.82675 35.9098C0.952868 34.5839 2.04085 25.2 12.6147 24.758C29.8525 24.01 55.2162 41.3498 75.4119 31.8639L76.1259 31.5239Z" fill="#C6D9FF" fill-opacity="0.5"/>
<path d="M6.56415 32.5136C7.04014 26.6657 16.39 27.5156 20.504 28.8756C16.118 25.7817 4.42218 25.0677 6.56415 32.5136Z" fill="#C6D9FF" fill-opacity="0.5"/>
<path d="M46.2734 29.8584C58.0033 34.0063 72.1131 31.4223 78.573 29.4844C74.1871 32.3403 56.8813 36.3863 46.2734 29.8584Z" fill="#C6D9FF" fill-opacity="0.5"/>
</g>
<defs>
<clipPath id="clip0_57_393">
<rect width="78.573" height="36.6515" fill="white"/>
</clipPath>
</defs>
</svg>
