<svg width="148" height="32" viewBox="0 0 148 32" fill="none" xmlns="http://www.w3.org/2000/svg">
<g opacity="0.5" clip-path="url(#clip0_57_331)">
<path fill-rule="evenodd" clip-rule="evenodd" d="M80.3591 9.8125H77.0008L72.2148 22.4865H75.6882L76.3442 20.4873H81.1301L81.786 22.4865H85.2602L80.3591 9.8125ZM77.1167 18.1455L78.7011 12.9057L80.3219 18.1484L77.1167 18.1455Z" fill="#C6D9FF"/>
<path fill-rule="evenodd" clip-rule="evenodd" d="M85.8359 22.4865H94.1339V19.8086H89.0776V9.8125H85.8359V22.4865Z" fill="#C6D9FF"/>
<path fill-rule="evenodd" clip-rule="evenodd" d="M60.6719 22.4865H63.6053V14.4897L68.3912 22.4858H71.6336V9.8125H68.7002V17.9219L63.9514 9.8125H60.6719V22.4865Z" fill="#C6D9FF"/>
<path fill-rule="evenodd" clip-rule="evenodd" d="M59.7057 22.4865V20.0343H52.8354V17.0544H58.7386V14.5616H52.8354V12.264H59.1263V9.8125H49.5938V22.4865H59.7057Z" fill="#C6D9FF"/>
<path fill-rule="evenodd" clip-rule="evenodd" d="M45.6948 17.3928C46.4691 17.1915 47.1537 16.7459 47.6422 16.1252C48.1308 15.5046 48.3959 14.7436 48.3964 13.9606C48.3964 11.0939 46.6211 9.77344 43.6877 9.77344H37.168V22.446H40.4103V17.9191H42.4561L45.0068 22.4831H48.6347L45.6948 17.3928ZM43.3787 15.5823H40.4067V12.148H43.3787C43.6134 12.1213 43.8512 12.1468 44.0743 12.2227C44.2975 12.2986 44.5001 12.4228 44.6672 12.586C44.8342 12.7493 44.9613 12.9474 45.039 13.1654C45.1166 13.3835 45.1427 13.6159 45.1154 13.8452C45.14 14.0754 45.1125 14.3081 45.0347 14.5268C44.9569 14.7454 44.8309 14.9446 44.6654 15.1103C44.5 15.276 44.2993 15.404 44.0776 15.4854C43.8558 15.5667 43.6185 15.5993 43.3824 15.5809L43.3787 15.5823Z" fill="#C6D9FF"/>
<path d="M21.3013 14.8983C18.3679 14.3705 17.8665 14.0686 17.8665 12.6348C17.8373 12.3171 17.8784 11.9969 17.9873 11.6962C18.0961 11.3954 18.2701 11.1211 18.4972 10.892C18.7244 10.6629 18.9995 10.4844 19.3036 10.3686C19.6078 10.2528 19.934 10.2025 20.2599 10.2211C23.2319 10.2211 23.656 12.9746 23.7333 13.8421C23.7317 13.8673 23.7356 13.8925 23.7447 13.9161C23.7539 13.9397 23.768 13.9611 23.7863 13.979C23.8046 13.9968 23.8265 14.0107 23.8506 14.0196C23.8748 14.0286 23.9006 14.0324 23.9264 14.0308H24.1968C24.2226 14.0324 24.2484 14.0286 24.2725 14.0196C24.2967 14.0107 24.3186 13.9968 24.3369 13.979C24.3552 13.9611 24.3693 13.9397 24.3785 13.9161C24.3876 13.8925 24.3915 13.8673 24.3899 13.8421V10.1834C24.3915 10.1582 24.3876 10.1329 24.3785 10.1093C24.3693 10.0857 24.3552 10.0643 24.3369 10.0464C24.3186 10.0286 24.2967 10.0147 24.2725 10.0058C24.2484 9.99688 24.2226 9.99307 24.1968 9.99463H23.9249C23.8823 10.0019 23.8423 10.0195 23.8085 10.0459C23.7748 10.0723 23.7484 10.1066 23.7318 10.1456V10.2211C23.6546 10.5231 23.6159 10.6741 23.4228 10.6741C23.1818 10.6286 22.9563 10.5248 22.7669 10.3721C22.0273 9.88165 21.1544 9.61894 20.2606 9.61786C19.7784 9.60848 19.2995 9.6969 18.8541 9.87755C18.4087 10.0582 18.0065 10.3272 17.6728 10.6674C17.3391 11.0077 17.0813 11.4119 16.9156 11.8545C16.7498 12.2971 16.6798 12.7684 16.7099 13.2388C16.7099 16.2565 18.0997 16.7843 20.9945 17.2372C23.1947 17.577 23.8506 18.1425 23.8506 19.73C23.8504 20.0714 23.7776 20.4091 23.6367 20.7215C23.4959 21.034 23.2901 21.3144 23.0324 21.5449C22.7747 21.7755 22.4707 21.9511 22.1399 22.0607C21.809 22.1703 21.4584 22.2114 21.1104 22.1815C19.2964 22.1815 17.4052 21.0875 17.4052 18.0698C17.4068 18.0446 17.4029 18.0194 17.3938 17.9958C17.3846 17.9722 17.3704 17.9507 17.3522 17.9329C17.3339 17.915 17.312 17.9012 17.2878 17.8923C17.2637 17.8833 17.2378 17.8795 17.2121 17.8811H16.9417C16.9159 17.8795 16.8901 17.8833 16.8659 17.8923C16.8418 17.9012 16.8198 17.915 16.8016 17.9329C16.7833 17.9507 16.7691 17.9722 16.76 17.9958C16.7509 18.0194 16.747 18.0446 16.7486 18.0698V22.4856C16.747 22.5108 16.7509 22.536 16.76 22.5597C16.7691 22.5833 16.7833 22.6047 16.8016 22.6225C16.8198 22.6404 16.8418 22.6542 16.8659 22.6632C16.8901 22.6721 16.9159 22.6759 16.9417 22.6744H17.2121C17.2378 22.6759 17.2637 22.6721 17.2878 22.6632C17.312 22.6542 17.3339 22.6404 17.3522 22.6225C17.3704 22.6047 17.3846 22.5833 17.3938 22.5597C17.4029 22.536 17.4068 22.5108 17.4052 22.4856C17.4052 22.0326 17.4825 21.9201 17.6756 21.9201C17.9577 21.9681 18.2309 22.0572 18.486 22.1843C19.2874 22.5859 20.1714 22.8051 21.0717 22.8253C23.5802 22.8253 25.1245 21.2036 25.1245 18.6382C25.1639 16.0678 23.7347 15.3157 21.3013 14.8983Z" fill="#C6D9FF"/>
<path d="M26.8238 20.3672C26.5566 20.3672 26.2954 20.4447 26.0732 20.5898C25.851 20.7348 25.6778 20.9411 25.5755 21.1824C25.4732 21.4236 25.4465 21.6891 25.4986 21.9453C25.5508 22.2014 25.6794 22.4367 25.8684 22.6214C26.0574 22.8061 26.2981 22.9318 26.5602 22.9828C26.8223 23.0337 27.094 23.0076 27.3409 22.9076C27.5878 22.8077 27.7988 22.6384 27.9473 22.4213C28.0958 22.2041 28.175 21.9488 28.175 21.6877C28.1762 21.514 28.142 21.3417 28.0745 21.181C28.007 21.0203 27.9076 20.8743 27.7819 20.7514C27.6561 20.6286 27.5067 20.5314 27.3423 20.4654C27.1778 20.3995 27.0016 20.3661 26.8238 20.3672Z" fill="#C6D9FF"/>
<path d="M13.0843 10.3368V10.0726C13.0859 10.0474 13.082 10.0222 13.0729 9.99857C13.0638 9.97497 13.0496 9.95353 13.0313 9.93568C13.0131 9.91783 12.9911 9.90398 12.967 9.89505C12.9428 9.88612 12.917 9.88231 12.8912 9.88387H8.7619C8.73612 9.88231 8.7103 9.88612 8.68614 9.89505C8.66198 9.90398 8.64005 9.91783 8.62178 9.93568C8.60352 9.95353 8.58935 9.97497 8.58021 9.99857C8.57107 10.0222 8.56717 10.0474 8.56877 10.0726V10.3368C8.56717 10.362 8.57107 10.3873 8.58021 10.4109C8.58935 10.4345 8.60352 10.4559 8.62178 10.4738C8.64005 10.4916 8.66198 10.5055 8.68614 10.5144C8.7103 10.5233 8.73612 10.5271 8.7619 10.5256H9.76617C10.4221 10.5256 10.6538 10.6766 10.6538 11.5441V18.5951C10.6538 21.575 8.53087 22.1783 6.75554 22.1783C6.38292 22.2061 6.00849 22.1567 5.65672 22.0334C5.30496 21.9101 4.98376 21.7157 4.71414 21.4628C4.44451 21.2099 4.23251 20.9043 4.092 20.5659C3.95148 20.2275 3.88561 19.8639 3.89869 19.4989V10.5249H5.59677C5.62255 10.5264 5.64837 10.5226 5.67252 10.5137C5.69668 10.5048 5.71862 10.4909 5.73688 10.4731C5.75514 10.4552 5.76932 10.4338 5.77846 10.4102C5.7876 10.3866 5.7915 10.3613 5.7899 10.3361V10.0719C5.7915 10.0467 5.7876 10.0215 5.77846 9.99786C5.76932 9.97425 5.75514 9.95282 5.73688 9.93497C5.71862 9.91712 5.69668 9.90327 5.67252 9.89434C5.64837 9.88541 5.62255 9.88159 5.59677 9.88316H0.193526C0.167682 9.88158 0.141793 9.88541 0.117582 9.89439C0.0933718 9.90336 0.0713969 9.91728 0.053122 9.9352C0.0348471 9.95313 0.0206921 9.97466 0.0116004 9.99835C0.0025087 10.022 -0.00131079 10.0474 0.00039649 10.0726V10.3368C-0.00120273 10.362 0.00269697 10.3873 0.0118369 10.4109C0.0209769 10.4345 0.0351483 10.4559 0.0534112 10.4738C0.0716741 10.4916 0.0936112 10.5055 0.117768 10.5144C0.141924 10.5233 0.167747 10.5271 0.193526 10.5256H1.69847V19.1627C1.69847 22.3677 4.24924 22.8214 6.75481 22.8214C9.61094 22.8214 11.309 21.3129 11.309 18.7852V11.5434C11.309 10.6759 11.5021 10.5249 12.0808 10.5249H12.8912C12.9169 10.5264 12.9427 10.5226 12.9668 10.5137C12.9909 10.5049 13.0128 10.4911 13.031 10.4733C13.0493 10.4555 13.0635 10.4342 13.0727 10.4107C13.0819 10.3871 13.0858 10.362 13.0843 10.3368Z" fill="#C6D9FF"/>
<path d="M13.6245 20.3683C13.2717 20.3763 12.936 20.5189 12.6894 20.7656C12.4428 21.0123 12.3047 21.3435 12.3047 21.6884C12.3047 22.0333 12.4428 22.3645 12.6894 22.6112C12.936 22.8579 13.2717 23.0005 13.6245 23.0085C13.9815 23.0045 14.3228 22.8641 14.5753 22.6173C14.8278 22.3705 14.9715 22.037 14.9757 21.6881C14.9832 21.5127 14.9534 21.3378 14.8881 21.1743C14.8229 21.0108 14.7236 20.8623 14.5966 20.7383C14.4696 20.6142 14.3176 20.5173 14.1503 20.4536C13.9829 20.3899 13.8039 20.3609 13.6245 20.3683Z" fill="#C6D9FF"/>
<path d="M26.7083 0H32.1116C32.1717 0.00399666 32.2283 0.0291418 32.2709 0.0707815C32.3135 0.112421 32.3392 0.167736 32.3433 0.226487V31.2666H36.5506C36.6121 31.2666 36.671 31.2905 36.7145 31.333C36.758 31.3754 36.7824 31.4331 36.7824 31.4931C36.7824 31.5532 36.758 31.6108 36.7145 31.6533C36.671 31.6957 36.6121 31.7196 36.5506 31.7196H32.1123C32.0522 31.7156 31.9956 31.6905 31.953 31.6488C31.9104 31.6072 31.8846 31.5519 31.8805 31.4931V0.452974H26.7061C26.6464 0.448485 26.5903 0.423123 26.5482 0.38153C26.506 0.339938 26.4806 0.284898 26.4766 0.226487C26.4807 0.167736 26.5064 0.112421 26.549 0.0707815C26.5916 0.0291418 26.6482 0.00399666 26.7083 0Z" fill="#C6D9FF"/>
<path d="M107.763 10.1144H107.494C107.468 10.1128 107.442 10.1167 107.418 10.1256C107.394 10.1345 107.372 10.1484 107.353 10.1662C107.335 10.1841 107.321 10.2055 107.312 10.2291C107.303 10.2527 107.299 10.278 107.3 10.3031C107.3 10.7932 107.069 10.8687 106.837 10.8687C106.564 10.8048 106.312 10.675 106.104 10.4912C105.373 9.9327 104.48 9.61568 103.553 9.58594C100.388 9.58594 97.7227 12.6036 97.7227 16.1868C97.7227 19.77 100.386 22.7877 103.553 22.7877C104.546 22.7588 105.499 22.3995 106.255 21.7692C106.437 21.6202 106.647 21.5051 106.872 21.4295C107.142 21.4295 107.297 21.8447 107.297 22.1083C107.295 22.1335 107.299 22.1587 107.308 22.1823C107.317 22.2059 107.332 22.2273 107.35 22.2452C107.368 22.263 107.39 22.2769 107.414 22.2858C107.438 22.2948 107.464 22.2986 107.49 22.297H107.76C107.786 22.2986 107.812 22.2948 107.836 22.2858C107.86 22.2769 107.882 22.263 107.9 22.2452C107.919 22.2273 107.933 22.2059 107.942 22.1823C107.951 22.1587 107.955 22.1335 107.953 22.1083V17.9603C107.955 17.9351 107.951 17.9098 107.942 17.8862C107.933 17.8626 107.919 17.8412 107.9 17.8233C107.882 17.8055 107.86 17.7916 107.836 17.7827C107.812 17.7738 107.786 17.77 107.76 17.7715H107.494C107.468 17.77 107.442 17.7738 107.418 17.7827C107.394 17.7916 107.372 17.8055 107.353 17.8233C107.335 17.8412 107.321 17.8626 107.312 17.8862C107.303 17.9098 107.299 17.9351 107.3 17.9603C107.3 19.9217 105.757 22.1097 103.557 22.1097C100.739 22.1097 100.122 18.8655 100.122 16.1498C100.122 13.4341 100.7 10.1899 103.557 10.1899C104.563 10.2315 105.513 10.6509 106.211 11.3606C106.908 12.0703 107.298 13.0156 107.3 13.9996C107.299 14.0248 107.303 14.05 107.312 14.0736C107.321 14.0972 107.335 14.1187 107.353 14.1365C107.372 14.1544 107.394 14.1682 107.418 14.1771C107.442 14.1861 107.468 14.1899 107.494 14.1883H107.764C107.79 14.1899 107.816 14.1861 107.84 14.1771C107.864 14.1682 107.886 14.1544 107.904 14.1365C107.922 14.1187 107.936 14.0972 107.946 14.0736C107.955 14.05 107.959 14.0248 107.957 13.9996V10.2654C107.952 10.2204 107.928 10.1793 107.892 10.151C107.856 10.1227 107.809 10.1096 107.763 10.1144Z" fill="#C6D9FF"/>
<path d="M120.807 21.8825H119.456L115.172 9.69922C115.154 9.66452 115.126 9.6355 115.092 9.61547C115.058 9.59545 115.018 9.58522 114.979 9.58598H114.785C114.746 9.58522 114.706 9.59545 114.672 9.61547C114.638 9.6355 114.61 9.66452 114.592 9.69922L110.73 20.9773C110.421 21.8825 110.266 21.8825 109.803 21.8825H109.225C109.199 21.881 109.173 21.8848 109.149 21.8937C109.125 21.9026 109.103 21.9165 109.085 21.9343C109.066 21.9522 109.052 21.9736 109.043 21.9972C109.034 22.0208 109.03 22.0461 109.032 22.0713V22.3348C109.03 22.36 109.034 22.3852 109.043 22.4088C109.052 22.4324 109.066 22.4539 109.085 22.4717C109.103 22.4896 109.125 22.5034 109.149 22.5123C109.173 22.5213 109.199 22.5251 109.225 22.5235H112.897C112.923 22.5251 112.949 22.5213 112.973 22.5123C112.997 22.5034 113.019 22.4896 113.037 22.4717C113.055 22.4539 113.07 22.4324 113.079 22.4088C113.088 22.3852 113.092 22.36 113.09 22.3348V22.0713C113.092 22.0461 113.088 22.0208 113.079 21.9972C113.07 21.9736 113.055 21.9522 113.037 21.9343C113.019 21.9165 112.997 21.9026 112.973 21.8937C112.949 21.8848 112.923 21.881 112.897 21.8825H111.971C111.778 21.8825 111.392 21.8448 111.392 21.6183C111.427 21.2671 111.519 20.9235 111.663 20.5998L112.357 18.5251H115.908L117.066 21.8441H115.594C115.568 21.8425 115.542 21.8463 115.518 21.8552C115.494 21.8642 115.472 21.878 115.453 21.8959C115.435 21.9137 115.421 21.9352 115.412 21.9588C115.403 21.9824 115.399 22.0076 115.4 22.0328V22.297C115.399 22.3222 115.403 22.3475 115.412 22.3711C115.421 22.3947 115.435 22.4161 115.453 22.434C115.472 22.4518 115.494 22.4657 115.518 22.4746C115.542 22.4835 115.568 22.4873 115.594 22.4858H120.804C120.83 22.4873 120.856 22.4835 120.88 22.4746C120.904 22.4657 120.926 22.4518 120.945 22.434C120.963 22.4161 120.977 22.3947 120.986 22.3711C120.995 22.3475 120.999 22.3222 120.998 22.297V22.0328C120.986 21.991 120.961 21.9539 120.926 21.9268C120.891 21.8997 120.849 21.884 120.804 21.8818L120.807 21.8825ZM112.585 17.919L114.09 13.3551L115.672 17.919H112.585Z" fill="#C6D9FF"/>
<path d="M132.964 21.9162C132.938 21.8802 132.903 21.851 132.863 21.8313C132.822 21.8115 132.778 21.8018 132.732 21.8029L132.694 21.8407C132.5 21.9304 132.29 21.9818 132.076 21.9917C131.883 21.9917 131.459 21.9917 131.343 21.0487L131.112 18.9362C130.881 17.0132 130.07 16.296 128.604 15.994C129.993 15.6543 131.499 14.9001 131.499 13.1651C131.499 9.88315 128.141 9.88315 127.022 9.88315H121.541C121.515 9.88159 121.49 9.8854 121.465 9.89434C121.441 9.90327 121.419 9.91712 121.401 9.93496C121.383 9.95281 121.369 9.97425 121.359 9.99786C121.35 10.0215 121.346 10.0467 121.348 10.0719V10.3361C121.346 10.3613 121.35 10.3866 121.359 10.4102C121.369 10.4338 121.383 10.4552 121.401 10.4731C121.419 10.4909 121.441 10.5048 121.465 10.5137C121.49 10.5226 121.515 10.5264 121.541 10.5249H123.123V21.8784H121.541C121.515 21.8769 121.49 21.8807 121.465 21.8896C121.441 21.8985 121.419 21.9124 121.401 21.9302C121.383 21.9481 121.369 21.9695 121.359 21.9931C121.35 22.0167 121.346 22.042 121.348 22.0672V22.3314C121.346 22.3566 121.35 22.3818 121.359 22.4054C121.369 22.429 121.383 22.4505 121.401 22.4683C121.419 22.4862 121.441 22.5 121.465 22.509C121.49 22.5179 121.515 22.5217 121.541 22.5201H126.983C127.009 22.5217 127.035 22.5179 127.059 22.509C127.083 22.5 127.105 22.4862 127.123 22.4683C127.141 22.4505 127.156 22.429 127.165 22.4054C127.174 22.3818 127.178 22.3566 127.176 22.3314V22.0672C127.178 22.042 127.174 22.0167 127.165 21.9931C127.156 21.9695 127.141 21.9481 127.123 21.9302C127.105 21.9124 127.083 21.8985 127.059 21.8896C127.035 21.8807 127.009 21.8769 126.983 21.8784H125.362V16.3715H126.327C128.222 16.3715 128.489 17.2768 128.605 18.2945L128.72 19.3885C128.952 21.35 129.145 22.6704 131.461 22.6704C131.984 22.6691 132.504 22.5928 133.004 22.4439C133.043 22.4439 133.081 22.4062 133.12 22.3307C133.139 22.3098 133.149 22.283 133.149 22.2552C133.149 22.2274 133.139 22.2006 133.12 22.1797L132.964 21.9162ZM125.322 10.5249H126.364C128.873 10.5249 129.182 11.9208 129.182 13.1651C129.182 14.9378 128.217 15.7291 126.017 15.7291H125.322V10.5249Z" fill="#C6D9FF"/>
<path d="M144.583 18.6002H144.313C144.287 18.5986 144.261 18.6024 144.237 18.6113C144.213 18.6203 144.191 18.6341 144.173 18.652C144.154 18.6698 144.14 18.6912 144.131 18.7149C144.122 18.7385 144.118 18.7637 144.12 18.7889C144.12 21.6178 142.884 21.9227 140.028 21.9227H137.752V16.4499H138.871C140.569 16.4499 140.724 17.091 140.724 18.4114C140.722 18.4366 140.726 18.4618 140.735 18.4854C140.744 18.5091 140.758 18.5305 140.777 18.5483C140.795 18.5662 140.817 18.58 140.841 18.589C140.865 18.5979 140.891 18.6017 140.917 18.6002H141.184C141.21 18.6017 141.236 18.5979 141.26 18.589C141.284 18.58 141.306 18.5662 141.324 18.5483C141.342 18.5305 141.357 18.5091 141.366 18.4854C141.375 18.4618 141.379 18.4366 141.377 18.4114V13.7342C141.379 13.709 141.375 13.6838 141.366 13.6602C141.357 13.6366 141.342 13.6152 141.324 13.5973C141.306 13.5795 141.284 13.5656 141.26 13.5567C141.236 13.5477 141.21 13.5439 141.184 13.5455H140.914C140.888 13.5439 140.862 13.5477 140.838 13.5567C140.814 13.5656 140.792 13.5795 140.774 13.5973C140.755 13.6152 140.741 13.6366 140.732 13.6602C140.723 13.6838 140.719 13.709 140.721 13.7342C140.721 14.8282 140.566 15.7712 138.868 15.7712H137.71V10.5278H140.334C142.379 10.5278 143.383 11.3575 143.383 13.0206C143.381 13.0458 143.385 13.071 143.394 13.0946C143.403 13.1182 143.418 13.1397 143.436 13.1575C143.454 13.1754 143.476 13.1892 143.5 13.1981C143.524 13.2071 143.55 13.2109 143.576 13.2093H143.885C143.911 13.2109 143.937 13.2071 143.961 13.1981C143.985 13.1892 144.007 13.1754 144.025 13.1575C144.043 13.1397 144.058 13.1182 144.067 13.0946C144.076 13.071 144.08 13.0458 144.078 13.0206V12.9451L143.885 10.0406C143.887 10.0155 143.883 9.99021 143.874 9.96661C143.864 9.943 143.85 9.92156 143.832 9.90371C143.814 9.88587 143.792 9.87202 143.768 9.86308C143.743 9.85415 143.718 9.85034 143.692 9.8519H134.162C134.136 9.85034 134.111 9.85415 134.086 9.86308C134.062 9.87202 134.04 9.88587 134.022 9.90371C134.004 9.92156 133.99 9.943 133.981 9.96661C133.971 9.99021 133.968 10.0155 133.969 10.0406V10.3049C133.968 10.3301 133.971 10.3553 133.981 10.3789C133.99 10.4025 134.004 10.424 134.022 10.4418C134.04 10.4597 134.062 10.4735 134.086 10.4824C134.111 10.4914 134.136 10.4952 134.162 10.4936H135.552V21.8814H134.162C134.136 21.8798 134.111 21.8836 134.086 21.8925C134.062 21.9015 134.04 21.9153 134.022 21.9332C134.004 21.951 133.99 21.9725 133.981 21.9961C133.971 22.0197 133.968 22.0449 133.969 22.0701V22.3343C133.968 22.3595 133.971 22.3848 133.981 22.4084C133.99 22.432 134.004 22.4534 134.022 22.4713C134.04 22.4891 134.062 22.503 134.086 22.5119C134.111 22.5208 134.136 22.5246 134.162 22.5231H144.584C144.61 22.5246 144.636 22.5208 144.66 22.5119C144.684 22.503 144.706 22.4891 144.724 22.4713C144.742 22.4534 144.756 22.432 144.766 22.4084C144.775 22.3848 144.779 22.3595 144.777 22.3343V18.7519C144.776 18.6756 144.66 18.6002 144.583 18.6002Z" fill="#C6D9FF"/>
<path d="M146.359 10.108C146.435 10.0871 146.503 10.0428 146.551 9.98164C146.6 9.9205 146.627 9.84574 146.629 9.76832C146.632 9.65673 146.591 9.54834 146.513 9.46634C146.374 9.38462 146.212 9.34521 146.05 9.35309C145.907 9.34689 145.764 9.35958 145.625 9.39084V10.7868H145.857V10.1835H146.011C146.166 10.1458 146.282 10.259 146.32 10.41V10.4478C146.323 10.5698 146.363 10.6882 146.436 10.7875H146.668C146.624 10.679 146.598 10.5643 146.591 10.4478C146.591 10.2213 146.513 10.108 146.359 10.108ZM146.05 9.99481H145.895V9.50479H146.05C146.32 9.50479 146.398 9.61804 146.398 9.73128C146.398 9.95777 146.243 9.99481 146.05 9.99481Z" fill="#C6D9FF"/>
<path d="M146.165 8.79688C145.913 8.79687 145.666 8.86989 145.457 9.00669C145.247 9.14349 145.084 9.33793 144.988 9.56542C144.891 9.7929 144.866 10.0432 144.915 10.2847C144.964 10.5262 145.086 10.7481 145.264 10.9222C145.442 11.0963 145.669 11.2149 145.916 11.2629C146.163 11.3109 146.419 11.2863 146.652 11.192C146.885 11.0978 147.084 10.9382 147.224 10.7335C147.364 10.5288 147.438 10.2881 147.438 10.0418C147.429 9.71461 147.292 9.40333 147.055 9.17185C146.818 8.94036 146.499 8.8062 146.165 8.79688ZM146.165 11.1358C146.02 11.13 145.877 11.096 145.746 11.0356C145.614 10.9753 145.497 10.8899 145.4 10.7844C145.303 10.679 145.228 10.5556 145.18 10.4216C145.133 10.2876 145.113 10.1457 145.122 10.0041C145.141 9.7399 145.256 9.49117 145.448 9.30392C145.64 9.11668 145.894 9.0036 146.165 8.98562C146.455 9.0038 146.727 9.1324 146.922 9.34391C147.116 9.55542 147.219 9.83303 147.207 10.1173C147.182 10.3793 147.064 10.6245 146.874 10.8106C146.684 10.9966 146.433 11.1117 146.165 11.1358Z" fill="#C6D9FF"/>
</g>
<defs>
<clipPath id="clip0_57_331">
<rect width="147.439" height="31.7217" fill="white"/>
</clipPath>
</defs>
</svg>
