<svg width="90" height="54" viewBox="0 0 90 54" fill="none" xmlns="http://www.w3.org/2000/svg">
<g opacity="0.5" clip-path="url(#clip0_223_603)">
<path d="M20.1691 14.2313L20.7297 43.0833L16.0128 44.3255L2.65341 21.8989C3.71237 21.3614 4.53481 20.4296 5.53866 19.8123C5.68111 19.7248 5.63681 19.5388 5.88173 19.7578L16.7835 37.2973L16.0334 17.7046L20.1698 14.2321L20.1691 14.2313Z" fill="#C6D9FF"/>
<path d="M32.8039 24.1567C34.7121 23.9422 36.5676 23.249 38.4413 22.9369C44.7326 21.8894 49.2478 27.3144 43.7764 32.0679C44.828 32.8892 45.9845 33.6768 47.3702 33.7767L46.3834 36.6691C46.1099 36.9319 44.0949 35.9742 43.6755 35.7729C43.1407 35.5161 42.4635 35.1185 41.9487 34.8078C41.6753 34.6431 40.5434 33.7022 40.4531 33.6759C40.1259 33.5798 39.1689 34.042 38.7421 34.0612L39.8231 38.4754L36.7471 39.2331L36.4527 39.055L32.8047 24.1568L32.8039 24.1567ZM39.1759 25.9302C38.4032 26.0141 37.5204 26.4158 36.7311 26.5327L38.0464 31.2249C39.8736 31.0113 43.4757 29.2756 42.3175 26.9477C41.9095 26.1272 39.9887 25.843 39.1758 25.9309L39.1759 25.9302Z" fill="#C6D9FF"/>
<path d="M34.932 39.6804L31.7772 40.4575L30.4339 38.3575L26.4696 39.3543L26.4139 41.7787L23.1009 42.5948L23.2478 26.7014L23.4478 26.6168C24.1464 26.5934 25.7556 25.7681 26.2654 26.1995L34.9328 39.6797L34.932 39.6804ZM28.7679 35.6825L26.5386 32.385L26.5593 36.2265L28.7679 35.6825Z" fill="#C6D9FF"/>
<path d="M56.5372 19.9831L55.9492 22.4458C54.172 22.6033 51.3214 22.0588 50.7834 24.3494C50.9688 25.6142 55.0148 25.8184 56.0887 26.1417C61.2697 27.7017 60.2837 33.326 55.5649 34.7695C53.3765 35.4391 51.4871 35.1475 49.3793 34.4343L49.9411 31.6522C51.2594 32.1868 55.497 32.6679 56.0485 31.0335C56.7901 28.8352 52.5167 28.6166 51.2074 28.2175C48.9134 27.5182 46.6447 25.7487 47.7584 23.0637C49.0135 20.0361 53.6757 19.3006 56.5372 19.9831Z" fill="#C6D9FF"/>
<path d="M78.5113 13.0613L83.3326 17.3894L84.6641 11.5453L87.8976 10.7487L85.7034 20.2327L87.3051 26.7756L84.1504 27.5528L82.4002 21.2547L75.1196 13.8969L78.5113 13.0613Z" fill="#C6D9FF"/>
<path d="M73.8578 14.2079L74.5526 17.0456L71.4766 17.8032C71.4341 17.8137 70.9799 18.124 70.9779 18.1978L74.1212 29.6074C74.1715 29.7354 74.0541 30.04 73.9753 30.0595L71.2936 30.7205C71.0347 30.6378 70.9993 30.4599 70.9156 30.2367C70.0125 27.8162 69.6198 24.456 68.8809 21.863C68.6055 20.8964 68.0766 19.8998 67.9655 18.8355L64.4951 19.6906L63.6041 16.7342L73.8578 14.2079Z" fill="#C6D9FF"/>
<path d="M61.6982 17.1484L58.6007 17.9674L62.5319 32.9277L65.6294 32.1087L61.6982 17.1484Z" fill="#C6D9FF"/>
<path d="M27.2942 15.3174L27.8732 17.6819L29.4506 17.2937L28.8716 14.9284L29.6603 14.7343L30.8953 19.7787L30.1064 19.9743L29.6054 17.9231L28.1173 18.2871L28.5283 20.3632L27.8979 20.5176L26.663 15.4725L27.2942 15.3174Z" fill="#C6D9FF"/>
<path d="M33.289 13.8404L33.4438 14.4698L31.7148 14.9696C31.5188 15.1929 31.8289 16.4595 32.1061 16.5659L33.5538 16.283L33.7079 16.9123L32.129 17.3011L32.4381 18.5638L34.3321 18.0955L34.5247 18.8848L32.0004 19.5068L30.7655 14.4617L33.2898 13.8397L33.289 13.8404Z" fill="#C6D9FF"/>
<path d="M25.8743 15.6674L25.9022 16.423L25.121 16.6884L26.1631 20.9456L25.3744 21.1397L24.3322 16.8832L23.3978 17.0972L23.1927 16.3276L25.8743 15.6674Z" fill="#C6D9FF"/>
</g>
<defs>
<clipPath id="clip0_223_603">
<rect width="84.5713" height="42.5943" fill="white" transform="translate(5.51038) rotate(7.43312)"/>
</clipPath>
</defs>
</svg>
