<svg width="104" height="41" viewBox="0 0 104 41" fill="none" xmlns="http://www.w3.org/2000/svg">
<g opacity="0.5" clip-path="url(#clip0_223_614)">
<path d="M86.626 13.4048L87.8431 22.8763L88.9988 13.4653C89.0268 13.4176 89.0718 13.4133 89.1205 13.4042C89.3383 13.362 90.3412 13.3724 90.5846 13.4017C90.6497 13.4097 90.7246 13.3993 90.7684 13.4616L91.8601 23.2423L93.0772 13.4042H95.0246L93.0468 30.4525L91.0313 30.4164L89.7607 21.5308L88.717 30.5044C88.1578 30.4476 87.3362 30.6107 86.8086 30.5129C86.7392 30.5001 86.6851 30.4922 86.665 30.4127L84.6787 13.4042H86.626V13.4048Z" fill="#C6D9FF"/>
<path d="M98.6752 13.4047L101.748 23.3034V13.4964L101.84 13.4047H104V30.5135C103.68 30.3815 103.407 30.5135 103.12 30.516C102.793 30.5184 102.519 30.4744 102.211 30.4579C102.061 30.45 101.857 30.6321 101.72 30.3883L99.131 21.7147C98.9582 21.7392 99.0708 21.9469 99.0708 21.9891V30.3601C98.8706 30.5312 98.517 30.4347 98.2498 30.4524C97.7545 30.4854 97.2561 30.5526 96.7583 30.4518V13.4047H98.6752Z" fill="#C6D9FF"/>
<path d="M68.2178 13.4964C68.2713 13.409 68.3389 13.4121 68.4277 13.4017C69.2888 13.3003 71.266 13.3681 72.1131 13.5569C74.0598 13.9901 74.5734 15.7957 74.6708 17.5879C74.759 19.2083 74.6343 20.9931 73.5425 22.269L75.0669 30.4573C75.0134 30.5594 72.9535 30.5453 72.7788 30.4867C72.7246 30.4683 72.6607 30.4402 72.6309 30.3907L71.3286 23.2173L70.5302 23.2429V30.4225C70.5302 30.4555 70.4268 30.5203 70.3763 30.5172L68.2178 30.4531V13.4964ZM70.5302 20.8593C71.3755 20.8734 72.1258 20.7811 72.34 19.8352C72.4946 19.1545 72.4934 16.939 72.2269 16.3139C72.1885 16.2247 72.0802 16.0444 72.0145 15.9772C71.9275 15.888 71.5033 15.6656 71.412 15.6656H70.5296V20.8593H70.5302Z" fill="#C6D9FF"/>
<path d="M79.5239 13.178C81.1627 13.0161 82.7242 13.9155 83.0479 15.5916C83.1666 16.2051 83.1003 16.7379 83.1246 17.3477C83.253 20.6271 83.3705 24.5395 83.1264 27.7932C82.835 31.6775 76.9266 31.8895 76.6741 27.5518C76.4477 23.6663 76.7873 19.4906 76.7532 15.5885C77.0301 14.2168 78.1516 13.3131 79.5245 13.1774L79.5239 13.178ZM79.9322 15.3948C79.1314 15.393 79.0121 15.9258 78.9263 16.6102C79.1423 20.0747 78.6451 23.8796 78.9293 27.3044C78.975 27.8525 79.1125 28.444 79.7466 28.4996C80.5846 28.5729 80.7927 28.1226 80.8779 27.3685C80.6594 23.8643 81.1621 20.016 80.8748 16.5521C80.8225 15.9215 80.6564 15.3961 79.9322 15.3942V15.3948Z" fill="#C6D9FF"/>
<path d="M12.5634 29.9294C10.8497 31.4967 7.64331 30.7292 7.19907 28.3261C7.24106 24.3788 6.8735 20.112 7.11692 16.1819C7.36459 12.1882 13.3034 12.0336 13.5729 16.3047C13.817 20.1737 13.447 24.3788 13.4938 28.2674C13.3636 28.9346 13.0599 29.4748 12.5634 29.9294ZM10.0251 15.4352C9.53648 15.525 9.40321 16.1208 9.36974 16.5491C9.09468 20.0442 9.58212 23.8973 9.36974 27.4297C9.43546 28.1971 9.74643 28.598 10.5601 28.4978C11.1485 28.4257 11.2812 27.7303 11.3183 27.2433C11.5763 23.8558 11.1248 20.1529 11.3213 16.7318C11.2514 15.8415 11.0603 15.2452 10.0251 15.4352Z" fill="#C6D9FF"/>
<path d="M65.6618 18.9651H63.4102V16.6126C63.4102 16.5045 63.2562 15.9655 63.1978 15.8482C62.9793 15.4077 62.6184 15.3643 62.1614 15.4199C61.576 15.4908 61.4908 16.1941 61.4604 16.6707C61.2334 20.1975 61.6235 23.9816 61.4792 27.5341C61.5504 28.6273 62.8381 28.9713 63.258 27.8855C63.3359 27.6851 63.4108 27.0319 63.4108 26.8168V23.8533H62.3762V21.8369H65.6624V30.5135L64.3948 30.442L64.1112 29.3532C63.314 30.4011 62.4511 31.0897 61.0764 30.5667C59.4272 29.9398 59.21 28.1867 59.1491 26.6359C59.0341 23.7183 59.0292 20.2592 59.1491 17.3428C59.2459 14.9861 59.8909 13.0326 62.6537 13.1579C65.6648 13.2941 65.9088 16.6291 65.6636 18.9651H65.6618Z" fill="#C6D9FF"/>
<path d="M52.6535 40.3364C52.7728 40.4556 53.0156 40.4189 53.1611 40.3554C53.7611 40.0939 54.9739 38.042 55.2051 37.398C55.3518 36.9904 55.3123 35.9389 55.9567 35.9462C56.6352 35.9541 56.0656 37.0179 56.1155 37.1029C57.9235 37.8043 55.8989 39.1058 56.1094 40.1959C56.2403 40.8748 57.1251 39.946 57.2949 39.7401C57.7738 39.1608 57.9552 38.4251 58.4219 37.8777C58.9513 37.2562 59.7863 36.7686 60.6273 36.9428C60.7934 36.977 60.9887 37.1988 61.1232 37.178C61.1719 37.1707 61.1835 37.0405 61.2455 36.9874C61.4981 36.7717 61.8851 36.955 61.817 37.3094C61.5833 37.8508 60.4581 39.8714 60.9437 40.3517C61.3819 40.7843 62.3348 39.4456 62.5229 39.1235C62.7657 38.7074 63.255 37.1298 63.4765 36.9629C63.8106 36.7118 64.141 37.1163 63.9584 37.4787C64.4495 37.112 65.2455 36.6275 65.8145 37.1114C66.6628 37.833 65.2997 39.2103 65.2498 40.0297C65.2035 40.7886 65.9605 40.279 66.2405 39.9845C66.9452 39.2415 67.1618 38.4264 67.5458 37.508C67.5397 37.3503 67.0066 37.5782 66.9689 37.1792C66.9263 36.7265 67.6018 37.0149 67.7923 36.8982C67.9042 36.8297 68.388 35.6431 68.559 35.4079C68.8341 35.0303 69.3027 35.0718 69.2509 35.5478C69.2266 35.7714 68.5341 36.8249 68.6436 36.9281C69.7213 36.8084 69.2193 37.7585 68.374 37.4249L68.3101 37.4768C68.0509 38.1777 67.3371 39.4932 67.5756 40.2307C67.6474 40.4519 67.8519 40.4446 68.0527 40.3981C68.7209 40.2436 70.0341 37.9119 70.2094 37.2477C70.3061 36.8805 70.3335 35.8289 70.9725 35.9615C71.6261 36.0971 71.02 36.9116 70.9682 37.219C70.911 37.5575 71.4678 38.3653 71.5938 38.7624C71.8238 39.4883 71.8025 40.3181 71.0985 40.7678C70.5556 41.1143 69.3544 41.0801 69.0385 40.4098C68.3728 41.0464 67.0717 41.3703 66.8788 40.166C66.7291 40.1531 66.6798 40.3554 66.546 40.4733C66.3865 40.6138 66.0415 40.8821 65.8461 40.9316C64.6132 41.2456 64.4337 40.188 64.7806 39.2506C64.9096 38.9023 65.6143 37.8532 65.3916 37.5349C65.1475 37.3748 64.8055 37.5734 64.5822 37.7072C64.0077 38.0512 63.5038 38.6683 63.2172 39.2696C63.0864 39.5445 62.6841 40.8686 62.5588 40.9297C62.291 41.0599 62.019 40.9053 62.0713 40.5937C61.4427 41.1552 60.3145 41.1601 60.1849 40.166C59.5185 41.0177 58.1529 41.4644 57.7203 40.1653C57.3703 40.3597 57.2261 40.7183 56.8373 40.8674C55.7936 41.267 55.2417 40.5888 55.4802 39.5659C55.5794 39.1425 56.3419 38.1135 56.1393 37.7817C56.1107 37.7347 55.8289 37.5929 55.7796 37.6039C55.1534 38.5583 54.5802 40.0321 53.6333 40.7049C52.9706 41.1754 52.0559 41.0593 51.9087 40.1653C51.3677 40.6224 51.1748 41.0825 50.3611 40.9554C49.9954 40.8986 49.8055 40.5595 49.7483 40.2258C49.2043 40.6591 48.8873 41.0788 48.1095 40.9554C47.6239 40.8784 47.5917 40.4837 47.3458 40.1653C47.0148 40.8876 45.7703 41.3287 45.2153 40.6236C45.1033 40.4819 45.0735 40.2949 44.9415 40.1666C44.3171 41.0507 42.8791 41.4583 42.5675 40.1036C41.6492 40.9206 39.7798 41.5365 38.9759 40.2876C38.1252 41.0269 36.1425 41.4937 35.7823 40.0431C35.2997 40.5558 34.8871 41.0574 34.1076 40.9609C33.328 40.8644 33.3451 39.905 33.5623 39.3105C33.7011 38.9311 34.11 38.3879 34.1776 38.028C34.2268 37.7646 33.9536 37.5954 33.7187 37.6033C33.5921 37.8789 32.9264 39.2482 32.7408 39.3411C32.5552 39.4339 32.299 39.3411 32.3136 39.1015C32.33 38.8351 33.056 37.8196 33.1954 37.4145C33.3146 37.0668 33.2727 36.7595 33.4181 36.4161C33.6986 35.7513 34.3887 35.7513 34.2579 36.5878C34.2287 36.7747 34.0552 36.9061 34.0832 37.1059C35.9612 37.7237 33.779 39.2445 34.1064 40.2301C34.2707 40.725 34.906 40.1708 35.1117 39.9503C35.8705 39.1339 35.9648 38.0267 36.8478 37.3552C37.3176 36.9978 38.2913 36.6654 38.7678 37.1383C39.6587 38.0225 38.2329 38.9573 37.474 39.206C37.2659 39.2739 36.4669 39.4022 36.4152 39.5225C36.3245 39.7346 36.5332 40.1556 36.7359 40.279C37.6335 40.8253 38.9297 39.646 39.3989 38.9384C39.5936 38.6451 40.1827 37.5929 40.2581 37.296C40.3561 36.9128 40.3092 35.8857 40.9798 35.9505C41.7308 36.0232 40.964 37.0888 40.9713 37.3137C40.9786 37.5385 41.4223 38.2345 41.533 38.5168C41.7424 39.052 41.8105 39.3845 41.6961 39.9625C41.6803 40.0425 41.7004 40.0786 41.777 40.0431C41.976 39.9497 42.5286 39.2879 42.6491 39.0857C42.9193 38.6317 43.0233 38.0359 43.2582 37.5563L43.1779 37.4395C43.058 37.4689 42.8511 37.4292 42.7763 37.3302C42.3485 36.7656 43.4779 37.0155 43.6191 36.8511C43.7536 36.5444 44.255 35.3174 44.4863 35.1867C44.6104 35.1164 44.8703 35.1305 44.9427 35.2771C45.135 35.6694 44.5033 36.4509 44.3658 36.8358C44.4796 37.0173 44.7863 36.8627 44.9159 36.9538C45.2123 37.7053 44.4303 37.3522 44.1637 37.4267C44.0189 37.4677 43.7025 38.2919 43.6331 38.4844C43.5041 38.8406 43.0154 40.1684 43.4511 40.3798C43.9794 40.6358 44.7985 39.4847 45.023 39.0857C45.1192 38.9152 45.1569 38.6946 45.2536 38.5229C45.8439 37.4689 47.1316 36.4057 48.342 37.1658C48.538 36.8407 49.1435 36.7699 49.0996 37.2477C49.0716 37.5483 48.4814 38.5058 48.3359 38.928C48.1905 39.3502 47.7481 40.6218 48.6268 40.3804C49.4727 40.1482 50.0678 38.364 50.4275 37.6669C50.5693 37.3919 50.8802 36.6648 51.2782 36.9819C51.6087 37.2446 51.0013 38.0475 50.8662 38.3518C50.7226 38.6757 50.0331 40.3511 50.666 40.411C51.2527 40.2649 51.7748 39.5073 52.0565 38.9971C52.3395 38.485 52.505 37.841 52.7807 37.3412C52.8817 37.1585 52.998 36.9477 53.2183 36.8896C53.4081 36.9232 53.5523 36.9856 53.5578 37.1994C53.5645 37.4695 53.0515 38.3005 52.9158 38.6384C52.7807 38.9757 52.3803 40.059 52.6554 40.334L52.6535 40.3364ZM36.6349 38.8229C37.0596 38.8626 38.7179 38.1092 38.2834 37.5648C37.7899 37.0357 36.4517 38.6329 36.6349 38.8229ZM46.9545 39.8995C47.246 39.5794 48.0006 38.32 48.0645 37.921C48.0949 37.731 47.9501 37.5605 47.7736 37.5061C46.719 37.1805 45.4685 39.0282 45.6681 39.9875C45.8378 40.8057 46.6101 40.2772 46.9545 39.8995ZM59.9853 37.4933C59.4558 37.6051 58.7937 38.4221 58.5917 38.9042C58.1036 40.067 58.6014 41.0458 59.6682 39.924C59.967 39.6093 60.7538 38.3304 60.7934 37.9308C60.8348 37.5116 60.312 37.4243 59.9853 37.4927V37.4933ZM40.5295 38.0292C40.4516 38.4832 39.4987 39.5702 39.5644 39.9393C39.6471 40.4061 40.333 40.5265 40.7066 40.3157C41.4229 39.9105 40.9805 38.5137 40.5301 38.0298L40.5295 38.0292ZM70.5903 38.0292C70.5471 37.9968 70.4808 38.138 70.4589 38.1709C70.3116 38.3903 69.6033 39.5531 69.5698 39.7242C69.3976 40.5986 70.9007 40.7281 71.0528 39.6808C71.1411 39.0753 70.7589 38.5809 70.5909 38.0292H70.5903Z" fill="#C6D9FF"/>
<path d="M29.2406 30.5135L28.775 26.7649L28.727 26.6909L26.6804 26.7215L26.2806 30.4445C26.1875 30.5386 24.7927 30.527 24.5517 30.5153C24.4051 30.508 24.0947 30.5245 24.0947 30.3608L26.3457 13.4322C26.4565 13.3528 28.7896 13.3681 29.061 13.4023C29.128 13.4108 29.1974 13.3962 29.2418 13.4652L31.4039 30.3033C31.4234 30.3675 31.3583 30.5141 31.3096 30.5141H29.2406V30.5135ZM28.4799 24.4032L27.7192 16.7648L26.9585 24.4032H28.4799Z" fill="#C6D9FF"/>
<path d="M22.577 18.9651H20.2646C20.3419 18.2502 20.4691 16.0456 19.897 15.5763C19.6761 15.3948 19.1789 15.3728 18.9081 15.434C18.4852 15.5293 18.4 16.1898 18.3751 16.5485C18.131 20.0723 18.5655 23.8765 18.3751 27.4297C18.4256 27.8653 18.5059 28.4122 19.0201 28.4928C19.3317 28.5417 19.7723 28.5167 19.9877 28.2503C20.3966 27.7437 20.3473 25.9565 20.3273 25.2868C20.3187 25.0149 20.1411 24.6397 20.3553 24.4032H22.4852C22.5454 24.4417 22.5637 24.4876 22.5764 24.556C22.6367 24.8866 22.5716 25.5275 22.574 25.9027C22.5886 28.1311 22.2716 30.6278 19.5033 30.7567C17.2304 30.8624 16.2013 29.3568 16.0662 27.2439C16.2202 23.7934 15.8593 20.1615 16.0632 16.7324C16.2068 14.3103 17.4768 12.7778 20.0431 13.2306C22.7061 13.6999 22.6702 16.8564 22.577 18.9657V18.9651Z" fill="#C6D9FF"/>
<path d="M47.9229 13.4047L49.2617 19.5767L50.4982 13.5508C50.4982 13.4854 50.6224 13.4047 50.6613 13.4047H52.8825L52.8679 13.7261L50.3875 23.2728V30.4219L50.2475 30.5031L48.1711 30.5074L48.075 30.4225V23.2734L45.5435 13.5318L45.6104 13.4053H47.9229V13.4047Z" fill="#C6D9FF"/>
<path d="M2.31246 28.2527H5.53774V30.4219L5.44646 30.5135H0.0912814L0 30.4219V13.4964L0.0912814 13.4047H2.22118L2.31246 13.4964V28.2527Z" fill="#C6D9FF"/>
<path d="M35.3564 28.2527H38.5817V30.4524C36.9514 30.494 35.3102 30.398 33.6805 30.45C33.5703 30.4536 33.0439 30.6033 33.0439 30.4219V13.4964L33.1352 13.4047H35.1434C35.2043 13.4047 35.3181 13.4389 35.3564 13.4964V28.2527Z" fill="#C6D9FF"/>
<path d="M42.2328 13.4047V28.1611L42.3241 28.2527H45.5189V30.4219L45.4277 30.5001C45.4027 30.5019 45.382 30.4524 45.3668 30.4524H39.9812V13.4047H42.2328Z" fill="#C6D9FF"/>
<path d="M54.5394 4.89738C54.6282 4.98782 54.91 4.95604 55.0579 5.01837C55.1997 5.07764 55.3055 5.29211 55.479 5.33244L55.7832 4.97865C56.0394 4.89616 56.5616 5.50597 56.7819 5.67034C57.0277 5.85364 57.9332 6.37607 57.9831 6.60582C57.999 6.67914 58.0069 6.75063 57.9843 6.82335C57.834 7.05309 57.3271 7.2529 57.0819 7.14047C56.8208 7.02071 56.8914 6.50133 56.5409 6.56977L56.4119 6.74391C55.9731 5.99785 55.3256 5.4412 54.4323 5.33977C54.2187 5.31533 53.9917 5.3581 53.7714 5.33121C53.469 5.29455 53.1915 5.14424 52.8817 5.15585C53.1361 5.55302 52.0821 5.98929 51.9038 5.8622C51.7255 5.7351 51.9652 5.38071 51.8776 5.21695C51.8064 5.36971 51.4614 5.68989 51.4297 5.81148C51.3963 5.9398 51.4845 6.04795 51.4857 6.1671C51.4881 6.45856 51.1285 6.538 50.9642 6.68281C50.593 7.01093 50.3703 7.32928 49.9017 7.57124C49.7136 7.6684 48.6913 8.10039 48.5604 7.96597L48.6207 7.69039C49.068 7.57002 50.3763 6.86367 50.3289 6.34797C50.2875 5.9013 48.9359 6.37607 49.2305 5.52186C48.6316 5.61351 48.4314 4.86317 48.5045 4.39512C48.5933 3.82564 49.2469 3.72604 49.7112 3.62156L49.7173 3.26044C49.2974 3.41259 48.359 2.91521 48.4503 2.44349C48.4698 2.34329 48.9901 2.06466 49.0923 2.04877C49.3406 2.01028 49.413 2.31762 49.6558 2.28218C49.7544 1.71454 48.7467 1.47379 49.1909 0.959918C49.2913 0.843822 50.279 0.146639 50.4226 0.0885914C51.0841 -0.178428 51.5301 0.225462 52.1271 0.320171C52.788 0.425268 53.4696 0.0384871 53.7051 0.874374L54.5382 4.89555L54.5394 4.89738Z" fill="#C6D9FF"/>
<path d="M37.8513 2.52841C37.9895 2.55468 38.284 2.48258 38.3862 2.54185C38.455 2.58157 39.1439 3.64842 39.3136 3.84029C39.3635 3.8965 39.4195 3.97655 39.4944 3.99488V2.52841H39.9812V4.97252C39.8546 4.9493 39.6027 5.0153 39.5072 4.95908C39.4262 4.91142 38.9114 4.09814 38.7897 3.93866C38.6795 3.79507 38.542 3.6136 38.3996 3.50544V4.97191H37.8519V2.5278L37.8513 2.52841Z" fill="#C6D9FF"/>
<path d="M62.3574 4.40488C62.4372 4.3059 62.4408 4.17636 62.4365 4.05599C61.2992 4.62913 60.6383 2.9873 61.6461 2.55897C63.6512 1.70597 63.406 6.24408 61.2195 4.75684L61.4921 4.36822C61.7069 4.54481 62.1597 4.65113 62.3574 4.40488ZM61.87 2.96774C61.3935 3.115 61.7933 4.05354 62.3459 3.62888C62.7396 3.32642 62.3489 2.81988 61.87 2.96774Z" fill="#C6D9FF"/>
<path d="M65.0405 2.48015C66.4651 2.339 66.5655 5.00369 65.1445 5.03791C63.7583 5.07152 63.74 2.60907 65.0405 2.48015ZM65.0374 2.9653C64.4478 3.07284 64.4417 4.57475 65.1427 4.54909C65.887 4.5222 65.7793 2.82965 65.0374 2.9653Z" fill="#C6D9FF"/>
<path d="M35.8366 2.53577L36.8169 4.97194L36.2668 4.94444L36.0934 4.45867L35.0905 4.43057L34.8623 4.96522L34.3213 4.97194L35.3047 2.53882L35.8353 2.53577H35.8366ZM35.8433 3.99429L35.57 3.20057L35.2365 3.90325C35.2438 4.04012 35.7264 3.98818 35.8433 3.99429Z" fill="#C6D9FF"/>
<path d="M43.0769 3.19203L42.9466 3.18836C42.2012 2.50645 41.3358 3.47005 41.8397 4.23566C42.1513 4.7086 42.646 4.58212 43.0452 4.30593L43.3233 4.58273C42.8645 5.29091 41.6157 5.1351 41.2877 4.36154C40.7017 2.98 42.2523 1.83738 43.3264 2.86391L43.0763 3.19203H43.0769Z" fill="#C6D9FF"/>
<path d="M68.887 2.52844C68.9022 2.70136 68.8901 2.83396 68.8396 3.00016C68.6582 3.60202 68.0722 4.31753 67.8586 4.93467L67.244 4.94262L68.2779 2.95677C67.9298 2.99405 67.5647 3.08142 67.2184 2.96349L67.1831 2.52905H68.887V2.52844Z" fill="#C6D9FF"/>
</g>
<defs>
<clipPath id="clip0_223_614">
<rect width="104" height="41" fill="white"/>
</clipPath>
</defs>
</svg>
