<svg width="75" height="15" viewBox="0 0 75 15" fill="none" xmlns="http://www.w3.org/2000/svg">
<g clip-path="url(#clip0_57_390)">
<path d="M14.0983 7.57219C14.0983 3.86008 11.2046 0.824361 7.54405 0.578125L10.9756 9.96865C10.6914 9.61336 9.00141 9.34078 6.95929 9.34078C4.91717 9.34078 3.22484 9.61396 2.94238 9.96924L6.36853 0.594301C2.81076 0.942985 0.03125 3.93376 0.03125 7.57159C0.03125 11.4443 3.18037 14.5836 7.06509 14.5836C10.9498 14.5836 14.0989 11.4443 14.0989 7.57159L14.0983 7.57219ZM11.0165 10.7379C11.0165 11.1429 9.19913 11.4718 6.95749 11.4718C4.71585 11.4718 2.89911 11.1429 2.89911 10.7379C2.89911 10.3329 4.71645 10.004 6.95749 10.004C9.19853 10.004 11.0165 10.3329 11.0165 10.7379Z" fill="#C6D9FF" fill-opacity="0.5"/>
<path d="M17.8984 14.6957H28.6559V11.2753H21.8138V0.611721H17.8984V14.6957ZM32.7726 14.9371C34.3267 14.9371 35.3358 14.0918 36.0419 13.1865V14.6957H39.8564V3.81037H36.0419V9.70567C36.0419 10.8925 35.3556 11.5365 34.4271 11.5365C33.4986 11.5365 32.873 10.8925 32.873 9.70567V3.81037H29.0381V10.9129C29.0381 13.3878 30.451 14.9371 32.772 14.9371H32.7726ZM45.3464 14.9371C46.9807 14.9371 47.9093 14.1523 48.6563 13.247V14.6957H52.4914V0.0078125H48.6563V5.13863C47.9502 4.31365 46.9815 3.56954 45.3265 3.56954C42.7426 3.56954 40.5028 5.72214 40.5028 9.2635V9.30364C40.5028 12.7845 42.7434 14.9371 45.3468 14.9371H45.3464ZM46.4963 11.7379C45.2657 11.7379 44.2561 10.7116 44.2561 9.26291V9.22277C44.2561 7.77412 45.265 6.74785 46.4963 6.74785C47.7281 6.74785 48.7369 7.79391 48.7369 9.22277V9.26291C48.7369 10.7116 47.7476 11.7379 46.4963 11.7379ZM57.1932 14.9371C58.7476 14.9371 59.7564 14.0918 60.4633 13.1865V14.6957H64.2777V3.81037H60.4633V9.70567C60.4633 10.8925 59.7767 11.5365 58.8485 11.5365C57.9199 11.5365 57.2941 10.8925 57.2941 9.70567V3.81037H53.4594V10.9129C53.4594 13.3878 54.8723 14.9371 57.1932 14.9371ZM69.6657 14.9371C72.3299 14.9371 74.1263 13.6898 74.1263 11.2951V11.255C74.1263 9.14251 72.4106 8.3978 70.2514 7.79451C69.121 7.45239 68.4753 7.25109 68.4753 6.82871V6.78858C68.4753 6.46685 68.7784 6.24517 69.363 6.24517C70.2308 6.24517 71.4621 6.62742 72.5922 7.27148L73.9042 4.85703C72.6529 4.05244 70.9976 3.58931 69.4031 3.58931C66.8804 3.58931 65.0232 4.87682 65.0232 7.19058V7.23071C65.0232 9.40373 66.7393 10.1281 68.8985 10.6912C70.0488 11.0129 70.6742 11.1945 70.6742 11.6366V11.6768C70.6742 12.059 70.3516 12.2603 69.6852 12.2603C68.5548 12.2603 67.2027 11.8379 65.9514 11.0129L64.5186 13.3063C66.0118 14.3931 67.8281 14.9359 69.6654 14.9359L69.6657 14.9371Z" fill="#C6D9FF" fill-opacity="0.5"/>
</g>
<defs>
<clipPath id="clip0_57_390">
<rect width="74.136" height="14.9608" fill="white"/>
</clipPath>
</defs>
</svg>
