<svg width="185" height="17" viewBox="0 0 185 17" fill="none" xmlns="http://www.w3.org/2000/svg">
<g opacity="0.5" clip-path="url(#clip0_57_356)">
<path d="M99.273 2.67188V14.3673H96.9731V9.38893H92.0577V14.3673H89.7578V2.67188H92.0577V7.48242H96.9731V2.67188H99.273Z" fill="#C6D9FF"/>
<path d="M109.611 10.4255H102.954C103.009 11.0967 103.237 11.6188 103.644 12.001C104.051 12.3832 104.549 12.5697 105.139 12.5697C105.994 12.5697 106.602 12.1968 106.964 11.4463H109.447C109.181 12.3413 108.678 13.0731 107.933 13.6511C107.188 14.2245 106.273 14.5135 105.19 14.5135C104.312 14.5135 103.525 14.3131 102.83 13.9168C102.135 13.5206 101.591 12.9613 101.202 12.2341C100.814 11.5069 100.617 10.6725 100.617 9.72159C100.617 8.77067 100.809 7.91763 101.193 7.19046C101.577 6.46328 102.112 5.90392 102.803 5.51702C103.493 5.12547 104.289 4.92969 105.185 4.92969C106.223 4.92969 107.133 5.20471 107.91 5.75009C108.23 5.97384 108.518 6.25352 108.752 6.56583C109.364 7.38158 109.671 8.36513 109.671 9.51649C109.671 9.85211 109.648 10.1551 109.607 10.4208L109.611 10.4255ZM107.293 8.84991C107.284 8.24859 107.069 7.76381 106.653 7.40022C106.237 7.03663 105.725 6.85484 105.126 6.85484C104.554 6.85484 104.074 7.03197 103.685 7.38158C103.297 7.73584 103.059 8.22062 102.972 8.84991H107.293Z" fill="#C6D9FF"/>
<path d="M111.314 7.19046C111.68 6.46328 112.179 5.90392 112.809 5.51702C113.44 5.12547 114.145 4.92969 114.922 4.92969C115.603 4.92969 116.198 5.06953 116.705 5.34921C117.213 5.62889 117.624 5.9785 117.931 6.40268V5.07885H120.249V14.3643H117.931V13.0079C117.633 13.4414 117.226 13.805 116.705 14.0893C116.184 14.3736 115.585 14.5182 114.904 14.5182C114.135 14.5182 113.436 14.3177 112.809 13.9168C112.179 13.516 111.68 12.9473 111.314 12.2154C110.949 11.4836 110.766 10.6445 110.766 9.69362C110.766 8.7427 110.949 7.9223 111.314 7.19512V7.19046ZM117.601 8.25792C117.382 7.85238 117.085 7.5354 116.714 7.32098C116.339 7.10189 115.942 6.99468 115.516 6.99468C115.091 6.99468 114.693 7.10189 114.332 7.31165C113.971 7.52608 113.678 7.83373 113.454 8.23927C113.23 8.64947 113.116 9.12959 113.116 9.68896C113.116 10.2483 113.23 10.7378 113.454 11.1573C113.678 11.5768 113.975 11.8985 114.341 12.1222C114.707 12.3459 115.1 12.4578 115.516 12.4578C115.932 12.4578 116.344 12.3506 116.714 12.1315C117.085 11.9124 117.382 11.6001 117.601 11.1946C117.821 10.789 117.931 10.2996 117.931 9.72625C117.931 9.1529 117.821 8.66812 117.601 8.25792Z" fill="#C6D9FF"/>
<path d="M124.472 1.96875V14.368H122.172V2.96629C122.172 2.41624 122.611 1.96875 123.15 1.96875H124.472Z" fill="#C6D9FF"/>
<path d="M139.812 5.40885C140.347 5.7165 140.768 6.16866 141.07 6.76531C141.371 7.36197 141.522 8.07982 141.522 8.91887V14.3634H139.222V9.23585C139.222 8.49935 139.039 7.93066 138.678 7.53444C138.317 7.13822 137.823 6.93778 137.197 6.93778C136.57 6.93778 136.058 7.13822 135.692 7.53444C135.327 7.93066 135.144 8.49935 135.144 9.23585V14.3634H132.844V1.96875H135.144V6.24324C135.441 5.84236 135.834 5.52539 136.328 5.29698C136.822 5.06857 137.37 4.95204 137.969 4.95204C138.66 4.95204 139.273 5.10586 139.812 5.41351V5.40885Z" fill="#C6D9FF"/>
<path d="M143.365 7.19978C143.749 6.47727 144.28 5.92256 144.961 5.52634C145.642 5.13013 146.42 4.92969 147.293 4.92969C148.422 4.92969 149.355 5.21869 150.096 5.79204C150.837 6.36539 151.33 7.17647 151.582 8.2113H149.099C148.966 7.81042 148.747 7.49345 148.431 7.26504C148.12 7.03663 147.732 6.9201 147.275 6.9201C146.616 6.9201 146.095 7.16249 145.715 7.64727C145.331 8.13206 145.139 8.82194 145.139 9.71693C145.139 10.6119 145.331 11.2832 145.715 11.7679C146.099 12.2527 146.621 12.4951 147.275 12.4951C148.207 12.4951 148.815 12.0709 149.099 11.2226H151.582C151.33 12.2294 150.832 13.0265 150.087 13.6185C149.341 14.2105 148.409 14.5088 147.293 14.5088C146.415 14.5088 145.638 14.3084 144.961 13.9122C144.28 13.516 143.749 12.9566 143.365 12.2387C142.981 11.5162 142.789 10.6772 142.789 9.71693C142.789 8.75668 142.981 7.91763 143.365 7.19512V7.19978Z" fill="#C6D9FF"/>
<path d="M153.232 7.19046C153.598 6.46328 154.096 5.90392 154.727 5.51702C155.358 5.12547 156.063 4.92969 156.84 4.92969C157.521 4.92969 158.116 5.06953 158.623 5.34921C159.131 5.62889 159.542 5.9785 159.849 6.40268V5.07885H162.167V14.3643H159.849V13.0079C159.551 13.4414 159.144 13.805 158.623 14.0893C158.102 14.3736 157.503 14.5182 156.822 14.5182C156.053 14.5182 155.354 14.3177 154.727 13.9168C154.096 13.516 153.598 12.9473 153.232 12.2154C152.866 11.4836 152.684 10.6445 152.684 9.69362C152.684 8.7427 152.866 7.9223 153.232 7.19512V7.19046ZM159.519 8.25792C159.3 7.85238 159.003 7.5354 158.632 7.32098C158.257 7.10189 157.86 6.99468 157.434 6.99468C157.009 6.99468 156.611 7.10189 156.25 7.31165C155.889 7.52608 155.596 7.83373 155.372 8.23927C155.148 8.64947 155.034 9.12959 155.034 9.68896C155.034 10.2483 155.148 10.7378 155.372 11.1573C155.596 11.5768 155.893 11.8985 156.259 12.1222C156.625 12.3459 157.018 12.4578 157.434 12.4578C157.85 12.4578 158.262 12.3506 158.632 12.1315C159.003 11.9124 159.3 11.6001 159.519 11.1946C159.739 10.789 159.849 10.2996 159.849 9.72625C159.849 9.1529 159.739 8.66812 159.519 8.25792Z" fill="#C6D9FF"/>
<path d="M167.879 5.37265C168.354 5.09297 168.898 4.95312 169.516 4.95312V7.41434H168.907C168.185 7.41434 167.641 7.58681 167.27 7.93175C166.905 8.27669 166.722 8.88267 166.722 9.74037V14.3645H164.422V5.08831H166.722V6.52867C167.019 6.03923 167.403 5.65233 167.879 5.37265Z" fill="#C6D9FF"/>
<path d="M179.131 10.4255H172.473C172.528 11.0967 172.757 11.6188 173.164 12.001C173.571 12.3832 174.069 12.5697 174.659 12.5697C175.514 12.5697 176.122 12.1968 176.483 11.4463H178.966C178.701 12.3413 178.198 13.0731 177.453 13.6511C176.707 14.2245 175.793 14.5135 174.709 14.5135C173.831 14.5135 173.045 14.3131 172.35 13.9168C171.655 13.5206 171.111 12.9613 170.722 12.2341C170.333 11.5069 170.137 10.6725 170.137 9.72159C170.137 8.77067 170.329 7.91763 170.713 7.19046C171.097 6.46328 171.632 5.90392 172.322 5.51702C173.013 5.12547 173.808 4.92969 174.705 4.92969C175.742 4.92969 176.652 5.20471 177.43 5.75009C177.75 5.97384 178.038 6.25352 178.271 6.56583C178.884 7.38158 179.19 8.36513 179.19 9.51649C179.19 9.85211 179.167 10.1551 179.126 10.4208L179.131 10.4255ZM176.812 8.84991C176.803 8.24859 176.588 7.76381 176.172 7.40022C175.756 7.03663 175.244 6.85484 174.645 6.85484C174.074 6.85484 173.593 7.03197 173.205 7.38158C172.816 7.73584 172.578 8.22062 172.492 8.84991H176.812Z" fill="#C6D9FF"/>
<path d="M43.7922 7.1466C44.1626 6.41477 44.6655 5.85074 45.3011 5.45918C45.9367 5.06297 46.6454 4.86719 47.4273 4.86719C48.1131 4.86719 48.7121 5.00703 49.2242 5.29137C49.7363 5.57106 50.1479 5.92532 50.4588 6.35417V5.02101H52.7953V14.3717H50.4588V13.006C50.1616 13.4441 49.7501 13.8077 49.2242 14.0967C48.6984 14.3857 48.0948 14.5256 47.409 14.5256C46.6362 14.5256 45.9321 14.3251 45.2965 13.9196C44.661 13.5141 44.158 12.9454 43.7876 12.2042C43.4173 11.4677 43.2344 10.6193 43.2344 9.66375C43.2344 8.70817 43.4173 7.87844 43.7876 7.1466H43.7922ZM50.125 8.21872C49.9055 7.80852 49.6037 7.49155 49.2288 7.27246C48.8539 7.05338 48.4515 6.9415 48.0217 6.9415C47.5919 6.9415 47.1941 7.04872 46.8283 7.26314C46.4625 7.47756 46.1699 7.78987 45.9412 8.20008C45.7126 8.61028 45.6029 9.09972 45.6029 9.65909C45.6029 10.2185 45.7172 10.7126 45.9412 11.1367C46.1653 11.5609 46.4671 11.8826 46.8374 12.1063C47.2078 12.3301 47.601 12.4419 48.0217 12.4419C48.4424 12.4419 48.8539 12.3347 49.2288 12.111C49.6037 11.8919 49.901 11.5749 50.125 11.1647C50.3445 10.7545 50.4542 10.2604 50.4542 9.68706C50.4542 9.11371 50.3445 8.6196 50.125 8.2094V8.21872Z" fill="#C6D9FF"/>
<path d="M57.2037 6.95897V11.4852C57.2037 11.8021 57.2768 12.0306 57.4277 12.1704C57.5786 12.3102 57.8255 12.3802 58.1822 12.3802H59.2567V14.3706H57.7981C55.8457 14.3706 54.8672 13.401 54.8672 11.4665V3.67735C54.8672 3.1413 55.2924 2.70312 55.8228 2.70312H57.2037V5.01517H59.2567V6.95897H57.2037Z" fill="#C6D9FF"/>
<path d="M61.2226 3.53296C60.9711 3.28591 60.8477 2.98292 60.8477 2.61467C60.8477 2.24642 60.9711 1.94343 61.2226 1.69637C61.4741 1.44932 61.7896 1.32812 62.1691 1.32812C62.5486 1.32812 62.8641 1.44932 63.1156 1.69637C63.3671 1.94343 63.4905 2.24642 63.4905 2.61467C63.4905 2.98292 63.3671 3.28591 63.1156 3.53296C62.8641 3.78001 62.5486 3.90121 62.1691 3.90121C61.7896 3.90121 61.4741 3.78001 61.2226 3.53296Z" fill="#C6D9FF"/>
<path d="M67.1937 13.9243C66.485 13.5234 65.9317 12.9593 65.5293 12.2275C65.127 11.4957 64.9258 10.652 64.9258 9.69638C64.9258 8.7408 65.1315 7.89709 65.5476 7.16525C65.9637 6.43341 66.5261 5.86938 67.244 5.46851C67.9619 5.06763 68.762 4.86719 69.6445 4.86719C70.527 4.86719 71.3272 5.06763 72.045 5.46851C72.7629 5.86938 73.3299 6.43341 73.7414 7.16525C74.1529 7.89709 74.3632 8.7408 74.3632 9.69638C74.3632 10.652 74.1483 11.4957 73.7277 12.2275C73.3024 12.9593 72.7263 13.5234 72.0039 13.9243C71.2814 14.3251 70.4721 14.5256 69.5759 14.5256C68.6797 14.5256 67.8979 14.3251 67.1891 13.9243H67.1937ZM70.7602 12.1483C71.1305 11.9385 71.4232 11.6262 71.6472 11.2113C71.8667 10.7965 71.9764 10.2884 71.9764 9.69172C71.9764 8.8014 71.7478 8.12083 71.2906 7.64071C70.8333 7.16059 70.2709 6.92286 69.6079 6.92286C68.9449 6.92286 68.3917 7.16059 67.9436 7.64071C67.4955 8.12083 67.2714 8.8014 67.2714 9.69172C67.2714 10.582 67.4909 11.2626 67.9253 11.7427C68.3597 12.2229 68.9084 12.4606 69.5714 12.4606C69.992 12.4606 70.3852 12.358 70.7556 12.1483H70.7602Z" fill="#C6D9FF"/>
<path d="M83.4852 5.94095C84.1573 6.64482 84.4957 7.62837 84.4957 8.88694V14.3734H82.1775V9.20858C82.1775 8.46742 81.9946 7.89407 81.6334 7.49319C81.2676 7.09231 80.7737 6.89187 80.1428 6.89187C79.5118 6.89187 78.9951 7.09231 78.6293 7.49319C78.2589 7.89407 78.076 8.46275 78.076 9.20858V14.3734H75.7578V5.01799H78.076V6.18334C78.387 5.7778 78.7802 5.46082 79.2603 5.22776C79.7404 4.99935 80.2662 4.88281 80.8423 4.88281C81.9351 4.88281 82.8176 5.23242 83.4898 5.93629L83.4852 5.94095Z" fill="#C6D9FF"/>
<path d="M37.9082 11.0008L36.3078 6.35344L35.8734 5.01562H33.3906L35.9603 12.2035C36.509 13.7091 37.9539 14.7533 39.8011 13.7697L39.8423 13.6998L40.5465 12.4505C40.2858 12.5857 38.6306 13.0192 37.9082 11.0008Z" fill="#C6D9FF"/>
<path d="M42.7385 6.47223C42.9622 5.83471 42.6366 5.13306 42.0112 4.90504C41.3859 4.67703 40.6976 5.009 40.4739 5.64652L38.9033 10.1234C38.6796 10.7609 39.0053 11.4626 39.6306 11.6906C40.256 11.9186 40.9442 11.5866 41.1679 10.9491L42.7385 6.47223Z" fill="#C6D9FF"/>
<path d="M63.2974 4.99219V14.4222H60.9609V4.99219H63.2974Z" fill="#C6D9FF"/>
<path d="M24.2506 13.7138C23.3498 13.201 22.6411 12.4878 22.1152 11.5789C21.5894 10.6699 21.3242 9.63973 21.3242 8.48837C21.3242 7.33701 21.5894 6.32549 22.1152 5.41185C22.6411 4.50288 23.3544 3.78969 24.2506 3.27694C25.1513 2.76419 26.1344 2.50781 27.2089 2.50781C28.2834 2.50781 29.2848 2.76419 30.1764 3.27694C31.068 3.78969 31.7768 4.50288 32.298 5.41185C32.8193 6.32082 33.0799 7.34633 33.0799 8.48837C33.0799 9.63041 32.8193 10.6699 32.298 11.5789C31.7768 12.4878 31.068 13.201 30.1673 13.7138C29.2665 14.2265 28.2834 14.4829 27.2089 14.4829C26.1344 14.4829 25.1468 14.2265 24.2506 13.7138ZM29.0333 11.9145C29.5591 11.5975 29.9707 11.1407 30.2679 10.5487C30.5651 9.9567 30.7114 9.27148 30.7114 8.48837C30.7114 7.70526 30.5651 7.02003 30.2679 6.43736C29.9707 5.85002 29.5591 5.40253 29.0333 5.09022C28.5075 4.77791 27.8993 4.61942 27.2089 4.61942C26.5185 4.61942 25.9058 4.77791 25.3754 5.09022C24.845 5.40253 24.4289 5.85469 24.1363 6.43736C23.839 7.02469 23.6927 7.70992 23.6927 8.48837C23.6927 9.26682 23.839 9.9567 24.1363 10.5487C24.4335 11.1407 24.845 11.5975 25.3754 11.9145C25.9058 12.2315 26.5185 12.3899 27.2089 12.3899C27.8993 12.3899 28.5075 12.2315 29.0333 11.9145Z" fill="#C6D9FF"/>
<path d="M2.62688 3.27365L0.135352 6.11749C-0.325569 6.64358 -0.280874 7.45099 0.235181 7.92088C0.751236 8.39077 1.54323 8.3452 2.00415 7.81911L4.49568 4.97527C4.9566 4.44917 4.9119 3.64176 4.39585 3.17187C3.87979 2.70199 3.0878 2.74755 2.62688 3.27365Z" fill="#C6D9FF"/>
<path d="M14.1608 8.82318L11.6632 11.674C11.1804 12.225 11.2273 13.0707 11.7678 13.5629L11.7712 13.566C12.3117 14.0582 13.1413 14.0105 13.6241 13.4594L16.1217 10.6086C16.6045 10.0576 16.5577 9.21187 16.0172 8.71969L16.0137 8.71658C15.4732 8.2244 14.6436 8.27213 14.1608 8.82318Z" fill="#C6D9FF"/>
<path d="M9.043 14.4353L9.03995 14.4387C8.56053 14.986 8.60702 15.8258 9.14379 16.3145L9.16084 16.3301C9.69761 16.8188 10.5214 16.7714 11.0008 16.2242L11.0039 16.2207C11.4833 15.6735 11.4368 14.8337 10.9 14.3449L10.883 14.3294C10.3462 13.8407 9.52242 13.888 9.043 14.4353Z" fill="#C6D9FF"/>
<path d="M5.10815 0.445655L5.05332 0.508234C4.5924 1.03433 4.6371 1.84174 5.15315 2.31162L5.15656 2.31473C5.67262 2.78462 6.46461 2.73905 6.92553 2.21296L6.98036 2.15038C7.44128 1.62428 7.39658 0.816877 6.88053 0.346988L6.87712 0.343883C6.36106 -0.126006 5.56907 -0.0804413 5.10815 0.445655Z" fill="#C6D9FF"/>
<path d="M10.3802 0.776049L1.02773 11.152C0.535637 11.6979 0.570843 12.5472 1.10636 13.0488C1.64188 13.5505 2.47493 13.5146 2.96702 12.9687L12.3195 2.59274C12.8116 2.0468 12.7764 1.19755 12.2409 0.695883C11.7054 0.194217 10.8723 0.230108 10.3802 0.776049Z" fill="#C6D9FF"/>
<path d="M13.4686 3.64572L4.13467 14.0011C3.63745 14.5527 3.67227 15.4101 4.21244 15.9161C4.7526 16.4221 5.59357 16.3852 6.09079 15.8335L15.4247 5.47818C15.9219 4.92656 15.8871 4.06916 15.347 3.56314C14.8068 3.05712 13.9658 3.09409 13.4686 3.64572Z" fill="#C6D9FF"/>
<path d="M13.4737 3.64439L7.74095 10.0045C7.24544 10.5542 7.28089 11.4094 7.82013 11.9145L7.82349 11.9177C8.36273 12.4228 9.20156 12.3867 9.69707 11.837L15.4298 5.47685C15.9254 4.92712 15.8899 4.07197 15.3507 3.56682L15.3473 3.56367C14.8081 3.05852 13.9692 3.09466 13.4737 3.64439Z" fill="#C6D9FF"/>
<path d="M14.1621 8.83647L13.0656 10.088C12.5828 10.6391 12.6296 11.4848 13.1701 11.977L13.1735 11.9801C13.7141 12.4723 14.5437 12.4246 15.0264 11.8735L16.123 10.6219C16.6058 10.0709 16.5589 9.22516 16.0184 8.73297L16.015 8.72987C15.4744 8.23769 14.6449 8.28541 14.1621 8.83647Z" fill="#C6D9FF"/>
<path d="M128.903 6.99803V11.5242C128.903 11.8412 128.976 12.0696 129.127 12.2095C129.278 12.3493 129.525 12.4192 129.881 12.4192H130.956V14.4096H129.497C127.545 14.4096 126.566 13.4401 126.566 11.5056V3.71642C126.566 3.18036 126.992 2.74219 127.522 2.74219H128.903V5.05423H130.956V6.99803H128.903Z" fill="#C6D9FF"/>
<path d="M184.358 12.2425C184.294 12.4989 184.23 12.7506 184.171 13.007C184.066 13.4359 183.956 13.8647 183.851 14.2982C183.828 14.3868 183.791 14.4147 183.704 14.4147C183.59 14.4101 183.476 14.4101 183.357 14.4147C183.275 14.4147 183.238 14.3868 183.22 14.3029C183.06 13.6456 182.895 12.9884 182.735 12.3264C182.73 12.3031 182.721 12.2845 182.708 12.2612C182.708 12.4243 182.708 12.5921 182.708 12.7553C182.708 13.2634 182.708 13.7715 182.708 14.2842C182.708 14.3868 182.676 14.4194 182.58 14.4101C182.474 14.4054 182.369 14.4054 182.264 14.4101C182.173 14.4147 182.141 14.3821 182.141 14.2889C182.141 13.7528 182.141 13.2168 182.141 12.6807C182.141 12.3171 182.141 11.9582 182.141 11.5946C182.141 11.5014 182.168 11.4688 182.264 11.4688C182.465 11.4734 182.666 11.4688 182.868 11.4688C182.974 11.4688 183.041 11.52 183.069 11.6226C183.211 12.1726 183.352 12.718 183.499 13.268C183.508 13.31 183.521 13.3473 183.54 13.4125C183.613 13.1235 183.682 12.8578 183.75 12.5921C183.837 12.2565 183.924 11.9162 184.011 11.5806C184.029 11.506 184.061 11.4734 184.143 11.4734C184.367 11.4734 184.591 11.4734 184.815 11.4734C184.893 11.4734 184.921 11.5014 184.921 11.5806C184.921 12.4896 184.921 13.3939 184.921 14.3029C184.921 14.3868 184.889 14.4147 184.815 14.4101C184.706 14.4101 184.596 14.4054 184.491 14.4101C184.399 14.4147 184.367 14.3821 184.367 14.2889C184.367 13.6316 184.367 12.9744 184.367 12.3218C184.367 12.2985 184.367 12.2705 184.367 12.2472H184.358V12.2425Z" fill="#C6D9FF"/>
<path d="M180.374 13.1981C180.374 12.8439 180.374 12.4849 180.374 12.1307C180.374 11.9862 180.374 11.9862 180.232 11.9862C180.031 11.9862 179.83 11.9862 179.628 11.9862C179.555 11.9862 179.523 11.9629 179.528 11.8836C179.528 11.7764 179.528 11.6692 179.528 11.562C179.528 11.4921 179.555 11.4688 179.619 11.4688C179.715 11.4688 179.811 11.4688 179.907 11.4688C180.493 11.4688 181.078 11.4688 181.663 11.4688C181.809 11.4688 181.809 11.4687 181.809 11.6133C181.809 11.7018 181.805 11.7904 181.809 11.879C181.814 11.9675 181.777 11.9908 181.695 11.9908C181.489 11.9908 181.279 11.9908 181.073 11.9908C180.991 11.9908 180.964 12.0188 180.964 12.1027C180.964 12.8252 180.964 13.5524 180.964 14.2749C180.964 14.4101 180.964 14.4101 180.831 14.4101C180.707 14.4101 180.579 14.4101 180.456 14.4101C180.387 14.4101 180.365 14.3821 180.365 14.3169C180.365 13.9439 180.365 13.571 180.365 13.2028C180.365 13.2028 180.365 13.2028 180.369 13.2028L180.374 13.1981Z" fill="#C6D9FF"/>
</g>
<defs>
<clipPath id="clip0_57_356">
<rect width="184.924" height="16.6598" fill="white"/>
</clipPath>
</defs>
</svg>
